<svg width="90" height="30" viewBox="0 0 90 30" fill="none" xmlns="http://www.w3.org/2000/svg">
<g clip-path="url(#clip0_24535_3239)">
<path d="M3.36557 0.00244141V9.07243H6.59395V11.6348H0.679688V0.00244141H3.36557Z" fill="#1F2937"/>
<path d="M16.9619 2.56723H13.765V4.50232H16.7923V7.06468H13.765V9.07001H16.9619V11.6324H11.0791V0.00244141H16.9619V2.56723Z" fill="#1F2937"/>
<path d="M43.8885 7.7767V11.6299H41.2026V0H45.487C46.3879 0 47.3179 0.19133 48.1099 1.04626C48.9164 1.91814 49.0714 2.89416 49.0714 3.87261C49.0714 4.79777 48.9624 5.87794 48.1559 6.76677C47.3494 7.65561 46.3855 7.77912 45.579 7.77912H43.8861L43.8885 7.7767ZM43.8885 5.33543H44.7895C45.068 5.33543 45.596 5.30153 45.9229 4.96973C46.2499 4.65488 46.2644 4.18503 46.2644 3.90651C46.2644 3.59167 46.2329 3.1751 45.9544 2.86026C45.6444 2.49455 45.1479 2.44127 44.8064 2.44127H43.8909V5.33543H43.8885Z" fill="#1F2937"/>
<path d="M59.4883 2.56236H56.2913V4.49746H59.3187V7.05982H56.2913V9.06515H59.4883V11.6275H53.6055V0H59.4883V2.56236Z" fill="#1F2937"/>
<path d="M68.5968 2.56236V11.6324H65.911V2.56236H63.707V0H70.8008V2.56236H68.5968Z" fill="#1F2937"/>
<path d="M77.7855 0V11.6324H75.0996V0H77.7855Z" fill="#1F2937"/>
<path d="M86.9743 2.56236V11.6324H84.2884V2.56236H82.0845V0H89.1782V2.56236H86.9743Z" fill="#1F2937"/>
<path d="M3.36557 18.1061V27.1736H6.59395V29.736H0.679688V18.1036H3.36557V18.1061Z" fill="#1F2937"/>
<path d="M13.1913 18.1061V24.9939C13.1913 25.4832 13.2058 26.2315 13.7192 26.791C14.0292 27.1228 14.5257 27.348 14.9932 27.348C15.4606 27.348 15.9401 27.1397 16.2356 26.8419C16.8556 26.2315 16.8411 25.3766 16.8411 24.7324V18.1061H19.5269V24.7857C19.5269 26.0063 19.4809 27.2802 18.362 28.5517C17.4926 29.5447 16.4051 30 14.9471 30C13.3172 30 12.1523 29.3727 11.5177 28.605C10.6168 27.5054 10.5078 26.0232 10.5078 24.7857V18.1061H13.1937H13.1913Z" fill="#1F2937"/>
<path d="M24.7993 29.7384V18.1061H27.4852L32.438 25.2216V18.1061H35.1239V29.7384H32.438L27.4852 22.6229V29.7384H24.7993Z" fill="#1F2937"/>
<path d="M46.2817 20.6684H43.0848V22.6035H46.1122V25.1659H43.0848V27.1712H46.2817V29.7336H40.3989V18.1012H46.2817V20.6636V20.6684Z" fill="#1F2937"/>
<path d="M55.3927 20.6684V29.736H52.7069V20.6684H50.5029V18.1061H57.5967V20.6684H55.3927Z" fill="#1F2937"/>
<path d="M64.5789 18.1061V29.7384H61.8931V18.1061H64.5789Z" fill="#1F2937"/>
<path d="M75.7392 20.6684H72.5423V22.6035H75.5697V25.1659H72.5423V27.1712H75.7392V29.7336H69.8564V18.1012H75.7392V20.6636V20.6684Z" fill="#1F2937"/>
<path d="M84.7411 18.1061C85.5161 18.1061 86.5115 18.2465 87.272 19.1354C87.8629 19.8159 88.156 20.8259 88.156 21.751C88.156 22.744 87.846 23.6159 87.3325 24.1753C86.9281 24.6113 86.3856 24.8728 85.9036 24.977L89.1465 29.7384H85.8092L83.2323 25.2749V29.7384H80.5464V18.1061H84.7363H84.7411ZM83.2347 23.3204H83.7457C84.1502 23.3204 84.7242 23.1993 85.0487 22.8506C85.2497 22.6229 85.3902 22.2403 85.3902 21.8745C85.3902 21.5088 85.2667 21.1431 85.0342 20.8985C84.7847 20.62 84.3367 20.4456 83.7457 20.4456H83.2347V23.3228V23.3204Z" fill="#1F2937"/>
<path d="M34.8574 0.00244141H24.7993V2.3759H34.8574V0.00244141Z" fill="#1F2937"/>
<path d="M34.8574 4.62585H24.7993V7.00658H34.8574V4.62585Z" fill="#1F2937"/>
<path d="M34.8574 9.25647H24.7993V11.6348H34.8574V9.25647Z" fill="#1F2937"/>
</g>
<defs>
<clipPath id="clip0_24535_3239">
<rect width="88.4984" height="30" fill="white" transform="translate(0.679688)"/>
</clipPath>
</defs>
</svg>
