<svg width="165" height="24" viewBox="0 0 165 24" fill="none" xmlns="http://www.w3.org/2000/svg">
<path d="M0 18.2575C0.214705 21.507 2.64802 23.785 7.33574 23.785C11.4867 23.785 14.3852 21.775 14.3852 18.76C14.3852 15.946 12.4529 14.4385 9.447 13.869L6.62006 13.333C4.9382 13.0315 4.11517 12.2945 4.11517 11.189C4.11517 9.983 5.4034 9.045 7.37152 9.045H7.65779C9.69749 9.045 10.9857 10.2845 11.1646 11.8925H14.5641C14.5641 8.643 12.095 6.365 7.47887 6.365C3.8289 6.365 0.715682 8.2745 0.715682 11.524C0.715682 14.204 2.79116 15.745 5.94016 16.3145L8.5524 16.7835C10.3058 17.085 10.9857 17.822 10.9857 18.9275C10.9857 20.2675 9.55435 21.105 7.65779 21.105H7.37152C5.18869 21.105 3.57841 20.1 3.39949 18.2575H0Z" fill="white"/>
<path d="M18.9049 19.765C18.9049 22.0765 20.372 23.45 22.8412 23.45H27.1352V20.6025H23.7358C22.698 20.6025 22.3044 20.234 22.3044 19.2625V9.447H26.5985V6.7H22.3044V1.273H18.9049V6.7H14.9687V9.447H18.9049V19.765Z" fill="white"/>
<path d="M42.8719 23.45C42.7645 22.6795 42.6929 21.44 42.6929 19.765V12.73C42.6929 9.2795 40.0449 6.365 35.4288 6.365C31.3852 6.365 28.4151 8.509 28.2004 11.5575H31.5999C31.7788 9.9495 33.3175 9.045 35.2856 9.045H35.5719C37.8621 9.045 39.2934 10.4185 39.2934 12.73V13.266L34.3552 13.6345C32.566 13.7685 31.0273 14.2375 29.7391 15.0415C28.4867 15.8455 27.8425 17.1185 27.8425 18.827C27.8425 21.641 30.3832 23.785 33.7469 23.785C36.5023 23.785 38.7567 22.2775 39.4724 20.77C39.4724 22.0095 39.5439 22.8805 39.6513 23.45H42.8719ZM39.2934 17.42C39.2934 19.363 36.6454 21.105 34.4268 21.105H34.1405C32.4945 21.105 31.242 20.033 31.242 18.693C31.242 17.1855 32.6734 16.214 34.8204 16.0465L39.2934 15.745V17.42Z" fill="white"/>
<path d="M46.1047 23.45H49.5042V14.07C49.5042 10.9545 51.7944 9.045 54.3708 9.045H54.6571C57.0904 9.045 58.2713 10.452 58.2713 12.8975V23.45H61.6708V12.2275C61.6708 8.71 59.2733 6.365 55.2297 6.365C52.5101 6.365 50.6851 7.4035 49.5042 9.045V6.7H46.1047V23.45Z" fill="white"/>
<path d="M95.7445 6.7L90.5558 20.3345L85.3671 6.7H81.8603L88.4803 23.45H92.5955L99.2156 6.7H95.7445Z" fill="white"/>
<path d="M100.668 23.45H104.068V6.7H100.668V23.45ZM100.49 3.685H104.247V0H100.49V3.685Z" fill="white"/>
<path d="M106.255 18.2575C106.47 21.507 108.903 23.785 113.591 23.785C117.742 23.785 120.64 21.775 120.64 18.76C120.64 15.946 118.708 14.4385 115.702 13.869L112.875 13.333C111.193 13.0315 110.37 12.2945 110.37 11.189C110.37 9.983 111.658 9.045 113.627 9.045H113.913C115.952 9.045 117.241 10.2845 117.42 11.8925H120.819C120.819 8.643 118.35 6.365 113.734 6.365C110.084 6.365 106.971 8.2745 106.971 11.524C106.971 14.204 109.046 15.745 112.195 16.3145L114.807 16.7835C116.561 17.085 117.241 17.822 117.241 18.9275C117.241 20.2675 115.809 21.105 113.913 21.105H113.627C111.444 21.105 109.833 20.1 109.654 18.2575H106.255Z" fill="white"/>
<path d="M123.299 23.45H126.699V6.7H123.299V23.45ZM123.12 3.685H126.878V0H123.12V3.685Z" fill="white"/>
<path d="M129.172 15.075C129.172 20.2005 132.929 23.785 137.76 23.785C142.591 23.785 146.348 20.2005 146.348 15.075C146.348 9.9495 142.591 6.365 137.76 6.365C132.929 6.365 129.172 9.9495 129.172 15.075ZM137.617 21.105C134.683 21.105 132.571 18.894 132.571 15.075C132.571 11.256 134.683 9.045 137.617 9.045H137.903C140.838 9.045 142.949 11.256 142.949 15.075C142.949 18.894 140.838 21.105 137.903 21.105H137.617Z" fill="white"/>
<path d="M148.83 23.45H152.23V14.07C152.23 10.9545 154.52 9.045 157.096 9.045H157.383C159.816 9.045 160.997 10.452 160.997 12.8975V23.45H164.396V12.2275C164.396 8.71 161.999 6.365 157.955 6.365C155.236 6.365 153.411 7.4035 152.23 9.045V6.7H148.83V23.45Z" fill="white"/>
<path d="M70.9778 23.2475H74.4847V16.5475H81.5699V13.7H74.4847V7H70.9778V13.7H63.8926V16.5475H70.9778V23.2475Z" fill="#BFFF4F"/>
</svg>
