<svg width="142" height="30" viewBox="0 0 142 30" fill="none" xmlns="http://www.w3.org/2000/svg">
<g clip-path="url(#clip0_25324_24052)">
<path d="M40.6291 4.26129C41.1226 4.16774 41.7581 4.09677 42.442 4.09677C43.1581 4.09677 43.6936 4.19032 44.1549 4.46451C44.6162 4.7 44.9549 5.14193 44.9549 5.7258C44.9549 6.59677 44.3097 7.15161 43.5613 7.36451V7.39677C44.2258 7.6 44.6484 8.14516 44.6484 8.90322C44.6484 9.64193 44.2484 10.1839 43.7065 10.5419C43.1226 10.9323 42.2517 11.1064 41.1033 11.1064C40.3258 11.1064 39.7 11.0452 39.3613 10.9742L40.6291 4.26129ZM41 9.91935C41.1742 9.93871 41.3484 9.94838 41.5646 9.94838C42.3646 9.94838 43.0904 9.62903 43.0904 8.86129C43.0904 8.17419 42.5162 7.97096 41.8291 7.97096H41.3678L41 9.91935ZM41.5936 6.89677H42.0839C42.8936 6.89677 43.4484 6.54838 43.4484 5.96451C43.4484 5.46129 43.0387 5.24838 42.4742 5.24838C42.2194 5.24838 42.0129 5.26774 41.9 5.3L41.5936 6.89677Z" fill="black"/>
<path d="M50.6968 6.04516L50.0517 9.4258C49.9291 10.0613 49.8581 10.6032 49.7839 11.0548H48.4807L48.5743 10.2355H48.5549C48.042 10.8903 47.4291 11.1677 46.8226 11.1677C46.0226 11.1677 45.542 10.7161 45.542 9.76451C45.542 9.48709 45.571 9.19032 45.6452 8.84193L46.1678 6.04516H47.6452L47.142 8.72903C47.1001 8.95483 47.071 9.2 47.071 9.38387C47.071 9.7129 47.1936 9.96774 47.5743 9.96774C48.0775 9.96774 48.5904 9.36451 48.7839 8.35806L49.2259 6.04193H50.6968V6.04516Z" fill="black"/>
<path d="M50.9968 11.0548L51.5613 8.07097C51.7033 7.3129 51.7678 6.47097 51.8162 6.04193H53.0968C53.0646 6.38064 53.0355 6.71935 53.0033 7.06774H53.0323C53.3807 6.4 53.9452 5.92903 54.6323 5.92903C54.7259 5.92903 54.8162 5.92903 54.9097 5.93871L54.6226 7.37419C54.5517 7.37419 54.4678 7.36452 54.3872 7.36452C53.4452 7.36452 53.0033 8.20645 52.8194 9.19032L52.471 11.0548H50.9968Z" fill="black"/>
<path d="M55.0871 11.7516C55.3645 11.9161 55.9774 12.029 56.4 12.029C57.1387 12.029 57.6903 11.7 57.8967 10.6968L57.9774 10.2774H57.958C57.5677 10.7806 57.1193 11.0161 56.5226 11.0161C55.529 11.0161 54.9226 10.2064 54.9129 9.23225C54.9129 7.57096 56.0903 5.93225 58.2742 5.93225C58.9806 5.93225 59.6064 6.05483 60.129 6.28064L59.3709 10.4097C59.1968 11.3323 58.9193 12.1516 58.3161 12.6323C57.7742 13.0613 57.0451 13.1968 56.3806 13.1968C55.7161 13.1968 55.0903 13.0742 54.7516 12.8774L55.0871 11.7516ZM58.529 7.15161C58.4161 7.09999 58.2 7.05806 57.9967 7.05806C57.1064 7.05806 56.4709 8.05161 56.4709 9.00644C56.4709 9.50967 56.6968 9.87741 57.1484 9.87741C57.629 9.87741 58.1226 9.34515 58.2774 8.49354L58.529 7.15161Z" fill="black"/>
<path d="M64.671 10.7677C64.0872 11.0645 63.3581 11.1677 62.8065 11.1677C61.371 11.1677 60.6323 10.3484 60.6323 9.04516C60.6323 7.51935 61.7388 5.92903 63.5517 5.92903C64.5646 5.92903 65.2936 6.49355 65.2936 7.42581C65.2936 8.70645 64.0517 9.16774 62.0452 9.11613C62.0452 9.25806 62.0968 9.48387 62.2001 9.62903C62.3936 9.88387 62.7323 10.0194 63.1646 10.0194C63.7065 10.0194 64.1678 9.89677 64.5678 9.7L64.671 10.7677ZM63.913 7.42903C63.913 7.18387 63.7097 7.00968 63.371 7.00968C62.6839 7.00968 62.2968 7.57419 62.1936 8.04516C63.342 8.05484 63.9162 7.89032 63.9162 7.43871V7.42903H63.913Z" fill="black"/>
<path d="M65.6161 11.0548L66.1806 8.07097C66.3258 7.3129 66.3871 6.47097 66.4354 6.04193H67.7161C67.6838 6.38064 67.6548 6.71935 67.6225 7.06774H67.6548C68.0032 6.4 68.5677 5.92903 69.2548 5.92903C69.3483 5.92903 69.4387 5.92903 69.5322 5.93871L69.2451 7.37419C69.1742 7.37419 69.0903 7.36452 69.0096 7.36452C68.0677 7.36452 67.6258 8.20645 67.4419 9.19032L67.0935 11.0548H65.6161Z" fill="black"/>
<path d="M67.2839 20.8839L67.7033 18.0355C67.8162 17.2871 67.971 16.3323 68.1646 15.3387H68.1323C67.7517 16.229 67.3226 17.1839 66.942 17.9419L65.5259 20.771H64.3775L64.1323 17.9742C64.071 17.2161 64.0194 16.2613 63.9775 15.3387H63.9581C63.7646 16.2516 63.5581 17.2968 63.3839 18.0355L62.6968 20.8839H61.3452L63.0775 13.9774H65.0549L65.271 16.6C65.313 17.2452 65.3839 18.0355 65.3936 18.8032H65.4355C65.7001 18.0355 66.071 17.2258 66.3678 16.6L67.6484 13.9774H69.6484L68.7162 20.8839H67.2839Z" fill="black"/>
<path d="M75.1581 17.8193C75.1581 19.6548 73.9065 20.9968 72.1645 20.9968C70.8936 20.9968 70.0452 20.1677 70.0452 18.9258C70.0452 17.1839 71.2548 15.7581 73.0387 15.7581C74.3774 15.7613 75.1581 16.6839 75.1581 17.8193ZM71.571 18.8968C71.571 19.4806 71.8581 19.871 72.371 19.871C73.1807 19.871 73.6323 18.6935 73.6323 17.8323C73.6323 17.371 73.4387 16.8806 72.8419 16.8806C71.9903 16.8774 71.5581 18.1161 71.571 18.8968Z" fill="black"/>
<path d="M78.4291 14.5097L78.1742 15.8742H79.2387L79.0226 16.9903H77.9581L77.6194 18.6935C77.5774 18.8871 77.5355 19.1548 77.5355 19.329C77.5355 19.5742 77.6387 19.7484 77.9549 19.7484C78.0871 19.7484 78.2323 19.7484 78.3645 19.729L78.1903 20.8871C78.0065 20.9581 77.6387 21 77.3194 21C76.4387 21 76.0194 20.5387 76.0194 19.9129C76.0194 19.6355 76.0484 19.371 76.1226 18.9806L76.5129 16.9903H75.8774L76.0807 15.8742H76.7258L76.9097 14.9323L78.4291 14.5097Z" fill="black"/>
<path d="M84.4064 17.8193C84.4064 19.6548 83.1548 20.9968 81.4129 20.9968C80.1419 20.9968 79.2903 20.1677 79.2903 18.9258C79.2903 17.1839 80.5 15.7581 82.2838 15.7581C83.6258 15.7613 84.4064 16.6839 84.4064 17.8193ZM80.8193 18.8968C80.8193 19.4806 81.1064 19.871 81.6193 19.871C82.429 19.871 82.8806 18.6935 82.8806 17.8323C82.8806 17.371 82.6871 16.8806 82.0903 16.8806C81.2387 16.8774 80.8064 18.1161 80.8193 18.8968Z" fill="black"/>
<path d="M84.8484 20.8839L85.4129 17.9032C85.5581 17.1452 85.6194 16.3032 85.6677 15.8742H86.9484C86.9194 16.2129 86.8871 16.5516 86.8548 16.9H86.8871C87.2355 16.2355 87.8 15.7613 88.4871 15.7613C88.5806 15.7613 88.671 15.7613 88.7645 15.771L88.4774 17.2065C88.4065 17.2065 88.3226 17.1968 88.2419 17.1968C87.3 17.1968 86.8581 18.0387 86.6742 19.0226L86.3258 20.8871H84.8484V20.8839Z" fill="black"/>
<path d="M88.8258 19.5613C89.1129 19.7032 89.6581 19.9097 90.1387 19.9097C90.5581 19.9097 90.7742 19.7032 90.7742 19.4581C90.7742 19.2129 90.6097 19.0387 90.1484 18.8129C89.5645 18.5258 89.0839 18.1064 89.0839 17.4806C89.0839 16.4452 89.9968 15.7581 91.2871 15.7581C91.871 15.7581 92.3323 15.871 92.5774 16.0129L92.2291 17.0581C92.0129 16.9548 91.6646 16.8323 91.2226 16.8323C90.8323 16.8323 90.5678 17.0064 90.5678 17.2742C90.5678 17.4806 90.7742 17.6548 91.1839 17.8484C91.7258 18.1258 92.3 18.5258 92.3 19.2226C92.3 20.371 91.3258 21.0064 90.0033 20.9968C89.3678 20.9774 88.7645 20.8226 88.4678 20.5968L88.8258 19.5613Z" fill="black"/>
<path d="M92.5065 22.9129L93.471 17.8097C93.5839 17.2161 93.7065 16.3452 93.7678 15.8323H95.0903L94.9968 16.6H95.0161C95.4258 16.0548 96.0194 15.7581 96.6258 15.7581C97.7129 15.7581 98.2355 16.629 98.2355 17.6548C98.2355 19.3968 97.0774 20.9968 95.3355 20.9968C94.9258 20.9968 94.5774 20.8935 94.4032 20.7903H94.3839L93.9742 22.9129H92.5065ZM94.6065 19.6355C94.771 19.7903 94.9968 19.8806 95.2839 19.8806C96.0742 19.8806 96.6871 18.7516 96.6871 17.7677C96.6871 17.3677 96.5226 16.9484 96.042 16.9484C95.4871 16.9484 94.9774 17.5742 94.7903 18.5581L94.6065 19.6355Z" fill="black"/>
<path d="M104.007 17.8193C104.007 19.6548 102.755 20.9968 101.013 20.9968C99.742 20.9968 98.8904 20.1677 98.8904 18.9258C98.8904 17.1839 100.1 15.7581 101.884 15.7581C103.229 15.7613 104.007 16.6839 104.007 17.8193ZM100.419 18.8968C100.419 19.4806 100.707 19.871 101.219 19.871C102.029 19.871 102.481 18.6935 102.481 17.8323C102.481 17.371 102.287 16.8806 101.69 16.8806C100.842 16.8774 100.41 18.1161 100.419 18.8968Z" fill="black"/>
<path d="M104.452 20.8839L105.016 17.9032C105.158 17.1452 105.219 16.3032 105.274 15.8742H106.555C106.526 16.2129 106.494 16.5516 106.461 16.9H106.494C106.842 16.2355 107.403 15.7613 108.094 15.7613C108.187 15.7613 108.277 15.7613 108.371 15.771L108.084 17.2065C108.013 17.2065 107.929 17.1968 107.848 17.1968C106.906 17.1968 106.465 18.0387 106.281 19.0226L105.932 20.8871H104.452V20.8839Z" fill="black"/>
<path d="M111.339 14.5097L111.084 15.8742H112.148L111.932 16.9903H110.868L110.529 18.6935C110.49 18.8871 110.448 19.1548 110.448 19.329C110.448 19.5742 110.552 19.7484 110.868 19.7484C111 19.7484 111.145 19.7484 111.277 19.729L111.103 20.8871C110.919 20.9581 110.552 21 110.232 21C109.352 21 108.932 20.5387 108.932 19.9129C108.932 19.6355 108.961 19.371 109.035 18.9806L109.426 16.9903H108.79L108.997 15.8742H109.642L109.826 14.9323L111.339 14.5097Z" fill="black"/>
<path d="M112.261 19.5613C112.548 19.7032 113.094 19.9097 113.574 19.9097C113.994 19.9097 114.21 19.7032 114.21 19.4581C114.21 19.2129 114.045 19.0387 113.584 18.8129C113 18.5258 112.519 18.1064 112.519 17.4806C112.519 16.4452 113.432 15.7581 114.723 15.7581C115.306 15.7581 115.768 15.871 116.013 16.0129L115.665 17.0581C115.448 16.9548 115.1 16.8323 114.661 16.8323C114.271 16.8323 114.006 17.0064 114.006 17.2742C114.006 17.4806 114.213 17.6548 114.623 17.8484C115.165 18.1258 115.739 18.5258 115.739 19.2226C115.739 20.371 114.765 21.0064 113.442 20.9968C112.806 20.9774 112.203 20.8226 111.906 20.5968L112.261 19.5613Z" fill="black"/>
<path d="M52.3613 29.8323C92.7613 28.7871 123.668 23.0161 123.668 16.0581C123.668 8.35806 85.8291 2.1129 39.1549 2.1129C26.8388 2.1129 15.1388 2.54839 4.58392 3.32903C4.58392 3.32903 4.50328 3.33871 4.49683 3.2871C4.49683 3.2871 4.47747 3.21613 4.56457 3.19355C18.9259 1.19355 37.0226 0 56.6904 0C103.368 0 141.203 6.71613 141.203 15C141.203 23.2839 103.365 30 56.6904 30C55.2388 30 53.7936 29.9935 52.3581 29.9806C52.3581 29.9806 52.2323 29.9935 52.2323 29.9129C52.2291 29.9161 52.2323 29.8258 52.3613 29.8323Z" fill="#777777"/>
<path d="M59.1355 14.5677H54.1097V19.4581H49.329V14.5161H44.3645V19.4581H39.4774V14.6677H34.5742V9.80001H29.6161V4.90968H24.6065V9.80001H19.7839V4.90968H14.7032V9.80001H9.79032V14.6936H4.88065V19.5807H0V24.5452H4.96452V19.6548H9.79032V24.4226H14.7548V19.6323H19.7097V24.4226H24.6774V19.6323H29.5452V24.4226H34.5645V19.6323H39.3871V24.4226H44.4677V19.5613H49.2065V24.4258H54.171V19.5677H59.1355V14.5677ZM19.7129 14.6677H14.7581V9.8742H19.7129V14.6677ZM19.7839 14.7645H24.6774V19.4581H19.7839V14.7645ZM24.6774 9.8742H29.5452V14.6677H24.6774V9.8742ZM29.6419 14.7645H34.5097V19.4581H29.6419V14.7645ZM14.7032 14.7645V19.4581H9.84839V14.7645H14.7032Z" fill="url(#paint0_linear_25324_24052)"/>
</g>
<defs>
<linearGradient id="paint0_linear_25324_24052" x1="0" y1="14.7264" x2="59.1356" y2="14.7264" gradientUnits="userSpaceOnUse">
<stop stop-color="#777777" stop-opacity="0"/>
<stop offset="0.0526" stop-color="#777777" stop-opacity="0.1"/>
<stop offset="0.1109" stop-color="#777777" stop-opacity="0.2"/>
<stop offset="0.1593" stop-color="#777777" stop-opacity="0.3"/>
<stop offset="0.1952" stop-color="#777777" stop-opacity="0.4"/>
<stop offset="0.2147" stop-color="#777777" stop-opacity="0.5"/>
<stop offset="0.254" stop-color="#777777" stop-opacity="0.6"/>
<stop offset="0.3054" stop-color="#777777" stop-opacity="0.7"/>
<stop offset="0.3611" stop-color="#777777"/>
<stop offset="0.4211" stop-color="#777777"/>
<stop offset="0.487" stop-color="#777777"/>
<stop offset="0.5619" stop-color="#777777"/>
<stop offset="0.6535" stop-color="#777777"/>
<stop offset="0.8098" stop-color="#777777"/>
</linearGradient>
<clipPath id="clip0_25324_24052">
<rect width="142" height="30" fill="white"/>
</clipPath>
</defs>
</svg>
