<svg width="30" height="22" viewBox="0 0 30 22" fill="none" xmlns="http://www.w3.org/2000/svg">
<path d="M7.73695 10.04C9.39029 10.04 10.777 10.6267 11.897 11.8C13.0703 12.92 13.657 14.3334 13.657 16.04C13.657 17.6934 13.0703 19.1067 11.897 20.28C10.7236 21.4 9.23029 21.96 7.41695 21.96C5.39029 21.96 3.71029 21.24 2.37695 19.8C1.04362 18.36 0.376953 16.3334 0.376953 13.72C0.376953 9.98671 1.39029 6.89337 3.41695 4.44004C5.44362 1.93337 8.05695 0.466707 11.257 0.0400391V4.36004C9.97695 4.73338 8.99029 5.45338 8.29695 6.52004C7.60362 7.53338 7.25695 8.70671 7.25695 10.04H7.73695ZM23.177 10.04C24.8303 10.04 26.217 10.6267 27.337 11.8C28.5103 12.92 29.097 14.3334 29.097 16.04C29.097 17.6934 28.5103 19.1067 27.337 20.28C26.1636 21.4 24.6703 21.96 22.857 21.96C20.8303 21.96 19.1503 21.24 17.817 19.8C16.4836 18.36 15.817 16.3334 15.817 13.72C15.817 9.98671 16.8303 6.89337 18.857 4.44004C20.8836 1.93337 23.497 0.466707 26.697 0.0400391V4.36004C25.417 4.73338 24.4303 5.45338 23.737 6.52004C23.0436 7.53338 22.697 8.70671 22.697 10.04H23.177Z" fill="#1F2937"/>
</svg>
