<svg width="80" height="80" viewBox="0 0 80 80" fill="none" xmlns="http://www.w3.org/2000/svg">
<path d="M18.364 1H40C40 18.9279 25.2078 33.4927 7 33.4927V12.1893C7 6.0133 12.0916 1 18.364 1Z" fill="#1F2937"/>
<path d="M40 1H56.4937C65.5975 1 73 8.27617 73 17.2401C73 26.204 65.6102 33.4802 56.5064 33.4802H40.0127V1H40Z" fill="#1F2937"/>
<path d="M73 65.9854H40C40 48.0575 54.7795 33.4927 73 33.4927V65.9854Z" fill="#1F2937"/>
<path d="M40 65.9854L23.5063 65.9854C14.4025 65.9854 7.0127 58.7092 7.0127 49.7453C7.0127 40.7814 14.4025 33.5052 23.5063 33.5052H40V65.9979V65.9854Z" fill="#1F2937"/>
<path d="M39.4286 65.9354C60.3155 65.8854 65.4071 69.0359 73 78.9875V65.9354" fill="#1F2937"/>
</svg>
