<svg width="60" height="60" viewBox="0 0 60 60" fill="none" xmlns="http://www.w3.org/2000/svg">
<path d="M30 30C14.2915 28.0877 1.91227 15.7085 -1.19201e-06 -7.15335e-07C15.7085 1.91228 28.0877 14.2915 30 30Z" fill="#1F2937"/>
<path d="M60 60C44.2915 58.0877 31.9123 45.7085 30 30C45.7085 31.9123 58.0877 44.2915 60 60Z" fill="#1F2937"/>
<path d="M30 30C28.0877 45.7085 15.7085 58.0877 8.34267e-07 60C1.91228 44.2915 14.2915 31.9123 30 30Z" fill="#1F2937"/>
<path d="M60 0C58.0877 15.7085 45.7085 28.0877 30 30C31.9123 14.2915 44.2915 1.91228 60 0Z" fill="#1F2937"/>
</svg>
