<svg width="60" height="60" viewBox="0 0 60 60" fill="none" xmlns="http://www.w3.org/2000/svg">
<g clip-path="url(#clip0_25711_29522)">
<path d="M34.8684 0H22.4294L17.2783 9.30853C15.9497 11.7095 13.4221 13.1997 10.678 13.1997H7.79008C4.93095 13.1997 3.1114 16.2567 4.47468 18.7699L8.0082 25.2839H17.7233C20.3042 25.2839 22.7059 23.9644 24.0901 21.7861L29.5463 13.1997H44.7166L38.1287 1.87516C37.4533 0.714216 36.2115 0 34.8684 0Z" fill="#1F2937"/>
<path d="M36.584 49.757L31.8268 40.8769C30.527 38.4506 28.0089 36.9249 25.2565 36.896L14.6228 36.7844L8.19812 24.7916L1.84408 34.384C1.07781 35.5408 1.00857 37.0249 1.6638 38.248L7.11262 48.4192L17.2493 49.1394C19.8326 49.3229 22.1412 50.8188 23.3642 53.1017L25.4429 56.9821C26.8141 59.5416 30.4419 59.6568 31.9727 57.1894L36.584 49.757Z" fill="#1F2937"/>
<path d="M44.522 13.0567L36.703 25.3119L41.8068 34.6414C43.1278 37.0562 43.0287 39.9988 41.5482 42.3193L36.6309 50.0264L48.1054 50.8767C49.4892 50.9792 50.8176 50.3137 51.5639 49.1439L55.5324 42.924C56.9254 40.7407 57.101 37.9954 55.9975 35.6524L51.6676 26.4588L58.0303 16.4862C58.8112 15.2623 57.9742 13.652 56.5238 13.5878L44.522 13.0567Z" fill="#1F2937"/>
</g>
<defs>
<clipPath id="clip0_25711_29522">
<rect width="60" height="60" fill="white"/>
</clipPath>
</defs>
</svg>
