<svg width="60" height="60" viewBox="0 0 60 60" fill="none" xmlns="http://www.w3.org/2000/svg">
<g clip-path="url(#clip0_25711_29531)">
<path fill-rule="evenodd" clip-rule="evenodd" d="M32.3276 2.32759C32.3276 1.0421 31.2855 0 30 0C28.7145 0 27.6724 1.0421 27.6724 2.32759V18.0256L21.7919 3.47071C21.3103 2.27882 19.9537 1.70299 18.7618 2.18454C17.5699 2.66609 16.9941 4.02268 17.4757 5.21457L23.5562 20.2645L12.0785 8.78679C11.1695 7.87781 9.6958 7.87781 8.78682 8.78679C7.87784 9.69577 7.87784 11.1695 8.78682 12.0785L19.8871 23.1788L5.43689 17.045C4.25359 16.5427 2.88716 17.0948 2.38488 18.2781C1.88259 19.4614 2.43467 20.8278 3.61797 21.3301L18.5594 27.6724H2.32759C1.0421 27.6724 0 28.7145 0 30C0 31.2855 1.0421 32.3276 2.32759 32.3276H18.0258L3.47068 38.2082C2.27879 38.6898 1.70296 40.0464 2.18451 41.2383C2.66606 42.4301 4.02265 43.006 5.21454 42.5244L20.2644 36.4439L8.78682 47.9215C7.87784 48.8305 7.87784 50.3042 8.78682 51.2132C9.6958 52.1222 11.1695 52.1222 12.0785 51.2132L23.1788 40.1129L17.045 54.5632C16.5427 55.7465 17.0948 57.1129 18.2781 57.6152C19.4614 58.1175 20.8278 57.5654 21.3301 56.3821L27.6724 41.4406V57.6724C27.6724 58.9579 28.7145 60 30 60C31.2855 60 32.3276 58.9579 32.3276 57.6724V41.9744L38.2082 56.5294C38.6897 57.7213 40.0463 58.2971 41.2382 57.8156C42.4301 57.334 43.0059 55.9774 42.5244 54.7855L36.4438 39.7354L47.9215 51.2132C48.8305 52.1222 50.3042 52.1222 51.2132 51.2132C52.1222 50.3042 52.1222 48.8305 51.2132 47.9215L40.1131 36.8214L54.5631 42.9551C55.7464 43.4574 57.1129 42.9053 57.6152 41.722C58.1174 40.5387 57.5654 39.1722 56.3821 38.67L41.4404 32.3276H57.6724C58.9579 32.3276 60 31.2855 60 30C60 28.7145 58.9579 27.6724 57.6724 27.6724H41.9746L56.5294 21.7919C57.7212 21.3103 58.2971 19.9538 57.8155 18.7619C57.334 17.57 55.9774 16.9941 54.7855 17.4757L39.7354 23.5564L51.2132 12.0785C52.1222 11.1695 52.1222 9.69576 51.2132 8.78678C50.3042 7.8778 48.8305 7.8778 47.9215 8.78678L36.8214 19.8869L42.9551 5.43692C43.4573 4.25362 42.9053 2.88718 41.722 2.3849C40.5387 1.88262 39.1722 2.4347 38.67 3.618L32.3276 18.5597V2.32759Z" fill="#1F2937"/>
</g>
<defs>
<clipPath id="clip0_25711_29531">
<rect width="60" height="60" fill="white"/>
</clipPath>
</defs>
</svg>
