<svg width="60" height="60" viewBox="0 0 60 60" fill="none" xmlns="http://www.w3.org/2000/svg">
<g clip-path="url(#clip0_25711_29527)">
<path d="M60 29.6154C60 25.7262 59.224 21.8752 57.7164 18.2821C56.2087 14.689 53.999 11.4242 51.2132 8.67415C48.4274 5.9241 45.1203 3.74265 41.4805 2.25434C37.8407 0.766024 33.9397 -1.7e-07 30 0C26.0603 1.7e-07 22.1593 0.766025 18.5195 2.25434C14.8797 3.74265 11.5726 5.9241 8.7868 8.67415C6.00104 11.4242 3.79125 14.689 2.28361 18.2821C0.775972 21.8752 -3.44416e-07 25.7262 0 29.6154L30 29.6154H60Z" fill="#1F2937"/>
<path d="M60 58.8461C60 54.957 59.224 51.1059 57.7164 47.5128C56.2087 43.9197 53.999 40.6549 51.2132 37.9049C48.4274 35.1548 45.1203 32.9734 41.4805 31.485C37.8407 29.9967 33.9397 29.2307 30 29.2307C26.0603 29.2307 22.1593 29.9967 18.5195 31.4851C14.8797 32.9734 11.5726 35.1548 8.7868 37.9049C6.00104 40.6549 3.79125 43.9197 2.28361 47.5128C0.775972 51.1059 -3.44416e-07 54.957 0 58.8461L30 58.8461H60Z" fill="#1F2937"/>
</g>
<defs>
<clipPath id="clip0_25711_29527">
<rect width="60" height="60" fill="white"/>
</clipPath>
</defs>
</svg>
