<svg width="32" height="38" viewBox="0 0 32 38" fill="none" xmlns="http://www.w3.org/2000/svg">
<g clip-path="url(#clip0_25242_17021)">
<path d="M5.50981 0H16C16 8.73409 8.82801 15.8298 0 15.8298V5.45119C0 2.44238 2.46864 0 5.50981 0Z" fill="#1F2937"/>
<path d="M16 0H23.9969C28.4109 0 32 3.5448 32 7.91184C32 12.2789 28.4171 15.8237 24.0031 15.8237H16.0062V0H16Z" fill="#1F2937"/>
<path d="M32 31.6597L16 31.6597C16 22.9256 23.1658 15.8299 32 15.8299V31.6597Z" fill="#1F2937"/>
<path d="M16 31.6594H8.00308C3.58907 31.6594 0.00615692 28.1146 0.00615692 23.7476C0.00615692 19.3805 3.58907 15.8357 8.00308 15.8357L16 15.8357L16 31.6655V31.6594Z" fill="#1F2937"/>
<path d="M15.723 31.6353C25.8499 31.6109 28.3186 33.1458 32 37.994V27.6353" fill="#1F2937"/>
</g>
<defs>
<clipPath id="clip0_25242_17021">
<rect width="32" height="38" fill="white"/>
</clipPath>
</defs>
</svg>
