<svg width="137" height="37" viewBox="0 0 137 37" fill="none" xmlns="http://www.w3.org/2000/svg">
<g clip-path="url(#clip0_26162_14739)">
<path d="M0 30.1442V24.1198L8.67384 17.9541V17.4337H0.38133V11.9298H17.1086V17.9541L8.4348 24.1198V24.6403H17.4217V30.1442H0Z" fill="#1F2937"/>
<path d="M20.2793 30.1442V11.9298H27.388V30.1442H20.2793Z" fill="#1F2937"/>
<path d="M31.082 37V11.9298H37.7354V14.283H37.9118C38.4468 13.4515 39.1867 12.7727 40.1429 12.2409C41.0934 11.7092 42.2431 11.4434 43.5919 11.4434C45.0091 11.4434 46.358 11.8224 47.6329 12.586C48.9078 13.3496 49.9323 14.464 50.7006 15.9291C51.469 17.3941 51.8503 19.1081 51.8503 21.0709C51.8503 23.0338 51.469 24.7081 50.7006 26.1619C49.9323 27.6157 48.9135 28.7244 47.6329 29.488C46.358 30.2516 45.0091 30.6306 43.5919 30.6306C42.3626 30.6306 41.3097 30.4044 40.4389 29.9575C39.5681 29.5106 38.8737 28.9506 38.3671 28.2775H38.1907V37.0057H31.082V37ZM41.4633 24.8439C42.1121 24.8439 42.687 24.6855 43.1878 24.3744C43.6887 24.0633 44.0643 23.6164 44.3205 23.0394C44.5766 22.4625 44.7018 21.8063 44.7018 21.0653C44.7018 20.279 44.5766 19.6002 44.3205 19.0232C44.0643 18.4463 43.6887 18.005 43.1878 17.7052C42.687 17.4054 42.1121 17.2527 41.4633 17.2527C40.8145 17.2527 40.2112 17.4111 39.7217 17.7222C39.2323 18.0333 38.8566 18.4745 38.5891 19.0402C38.3216 19.6059 38.1907 20.279 38.1907 21.0653C38.1907 21.8063 38.3216 22.4568 38.5891 23.0225C38.8566 23.5881 39.2323 24.035 39.7217 24.3574C40.2112 24.6799 40.7917 24.8439 41.4633 24.8439Z" fill="#1F2937"/>
<path d="M63.8294 30.625C61.8544 30.625 60.0844 30.2234 58.5135 29.4145C56.9484 28.6056 55.7133 27.4686 54.8198 26.0035C53.9262 24.5385 53.4766 22.8924 53.4766 21.0709C53.4766 19.2495 53.9262 17.5638 54.8198 16.0818C55.7133 14.6054 56.9427 13.4628 58.5135 12.6539C60.0787 11.845 61.8544 11.4434 63.8294 11.4434C65.8043 11.4434 67.5972 11.8054 69.0713 12.5351C70.5454 13.2648 71.6894 14.2208 72.5032 15.4087C73.3171 16.5965 73.8066 17.8749 73.966 19.2325H66.7548C66.5442 18.6782 66.2028 18.2143 65.7247 17.8467C65.2466 17.479 64.6262 17.2923 63.8579 17.2923C63.209 17.2923 62.6456 17.4507 62.1675 17.7618C61.6894 18.0729 61.3194 18.5141 61.0519 19.0798C60.7844 19.6455 60.6535 20.3073 60.6535 21.0709C60.6535 21.7893 60.7844 22.4285 61.0519 22.9942C61.3194 23.5599 61.6894 24.0011 62.1675 24.3122C62.6456 24.6233 63.209 24.7817 63.8579 24.7817C64.6034 24.7817 65.2181 24.595 65.7019 24.2273C66.1914 23.8597 66.5385 23.3958 66.7491 22.8415H73.9603C73.7952 24.2047 73.3114 25.4775 72.4975 26.6653C71.6837 27.8532 70.534 28.8149 69.0485 29.5389C67.563 30.2686 65.8214 30.6306 63.8237 30.6306L63.8294 30.625Z" fill="#1F2937"/>
<path d="M76.6875 30.1442V5.8999H83.7962V13.9323H83.9726C84.5304 13.2422 85.2817 12.6483 86.2208 12.1674C87.1599 11.681 88.2925 11.4377 89.6186 11.4377C90.9447 11.4377 92.1342 11.7262 93.1188 12.3032C94.1035 12.8802 94.8718 13.7287 95.4182 14.8487C95.9646 15.9687 96.2378 17.315 96.2378 18.8819V30.1385H89.1291V20.098C89.1291 19.2665 88.9185 18.6103 88.503 18.1239C88.0876 17.6374 87.5013 17.3942 86.7614 17.3942C86.2037 17.3942 85.7028 17.5299 85.2646 17.7901C84.8206 18.056 84.4678 18.4293 84.2003 18.9158C83.9328 19.4023 83.8019 19.9453 83.8019 20.5449V30.1385H76.6932L76.6875 30.1442Z" fill="#1F2937"/>
<path d="M106.864 30.625C105.447 30.625 104.103 30.246 102.84 29.4824C101.576 28.7187 100.552 27.61 99.7722 26.1563C98.9925 24.7025 98.6055 23.0055 98.6055 21.0653C98.6055 19.1251 98.9925 17.3885 99.7722 15.9234C100.552 14.4584 101.571 13.344 102.84 12.5804C104.103 11.8167 105.447 11.4377 106.864 11.4377C108.281 11.4377 109.391 11.7036 110.33 12.2353C111.269 12.7671 112.009 13.4458 112.544 14.2774H112.72V11.9242H119.374V30.1386H112.72V27.7854H112.544C112.054 28.6169 111.337 29.2957 110.381 29.8274C109.431 30.3592 108.258 30.625 106.864 30.625ZM109.061 24.844C109.71 24.844 110.279 24.6799 110.768 24.3575C111.258 24.0351 111.628 23.5882 111.884 23.0225C112.14 22.4569 112.265 21.8063 112.265 21.0653C112.265 20.2791 112.14 19.6059 111.884 19.0403C111.628 18.4746 111.258 18.0334 110.768 17.7223C110.279 17.4111 109.71 17.2528 109.061 17.2528C108.412 17.2528 107.803 17.4055 107.302 17.7053C106.801 18.0051 106.426 18.4463 106.169 19.0233C105.913 19.6003 105.788 20.2847 105.788 21.0653C105.788 21.8063 105.913 22.4625 106.169 23.0395C106.426 23.6165 106.801 24.0633 107.302 24.3745C107.803 24.6856 108.389 24.844 109.061 24.844Z" fill="#1F2937"/>
<path d="M121.6 17.711V12.4843H136.375V17.711H121.6ZM125.049 30.1442V7.56299H132.157V24.3575H137.001V30.1386H125.049V30.1442Z" fill="#1F2937"/>
<path d="M28.2199 4.53402L23.6602 0.00219727L19.1004 4.53401L23.6602 9.06583L28.2199 4.53402Z" fill="#1F2937"/>
</g>
<defs>
<clipPath id="clip0_26162_14739">
<rect width="137" height="37" fill="white"/>
</clipPath>
</defs>
</svg>
