<svg width="91" height="22" viewBox="0 0 91 22" fill="none" xmlns="http://www.w3.org/2000/svg">
<g clip-path="url(#clip0_4_51)">
<path d="M23.6307 0.228486L23.8528 0.317323L23.9861 0.450579L24.4302 0.494997L25.5851 0.539416H26.1626L26.9621 0.494997L27.3175 0.40616L27.4507 0.361742L27.4951 0.450579L27.5395 2.405L27.584 3.29337L27.6284 6.18058L27.7616 6.9357L28.0726 8.04616L28.2058 8.44593L28.3835 6.18058L28.5168 3.69314L28.6056 0.850346L28.5168 0.494997L28.65 0.361742H29.0054L29.3607 0.494997L31.1375 0.583835L33.9358 0.672672H35.8014V0.228486L35.9791 0.317323L36.2012 0.539416L36.3788 0.628253L37.0895 0.672672L39.3105 0.761509L39.6214 0.850346V1.33895L39.4882 2.31616L39.2216 5.20337L39.1772 5.86965V7.15779L39.3993 9.24547L39.4437 9.82291V10.8445L39.2661 11.422L39.2216 11.6885L39.1772 12.3992L39.1328 15.775L38.9995 20.8387L38.9551 21.5938L38.6886 21.7271L37.9779 21.8159H36.6009L35.7126 21.6827L35.3572 21.505L35.1795 21.2829V20.4834L35.6237 14.6201L35.6682 14.0871V12.9322L35.6237 12.5324L35.3572 13.0655L35.1351 13.4208L34.913 16.1304L34.8686 17.3297V20.7499L34.913 21.4162L34.6909 21.4606H34.1135L33.7137 21.4162L33.0475 21.5494L32.6033 21.5938H31.0486L28.65 21.4162L27.9393 21.5494L27.0954 21.5938L25.9849 21.505L25.5407 21.4162L25.4519 21.1052L25.0077 14.931L24.8744 13.2431L24.6968 11.955L24.4747 10.9778L24.2526 10.2227V9.77849L24.4302 9.42314L24.4747 9.24547V8.135L24.3858 6.75802L24.0749 3.64872L23.8528 1.38337L23.7195 0.71709L23.5419 0.40616L23.6307 0.228486ZM35.757 2.71593L35.6682 3.02686L35.2684 5.46988L35.0463 7.24663L35.0019 7.69081V9.15663L35.1795 9.91174H35.3128L35.6682 9.15663L35.8458 8.49035L35.8902 8.09058V7.24663L35.8458 5.73639L35.8014 2.71593H35.757Z" fill="#191919"/>
<path d="M20.5658 0.272904H21.8095L22.1205 0.40616L22.2093 0.583835L22.1205 0.983602L21.9428 1.42779V2.80477L22.0761 4.98128L22.2093 6.44709L22.3426 7.20221L22.5647 7.77965L22.8312 8.26825L23.3198 8.93453L23.3642 9.02337L23.3198 9.46756L22.8312 10.4003L22.7868 10.578V11.7773L22.9644 13.4652L23.1865 15.4197L23.5419 19.4173L23.764 21.1052L23.8084 21.4162L21.0544 21.4606L19.633 21.5938L17.6342 21.8604L17.1456 21.9048H15.9907L15.6354 21.8159L15.28 21.9936H14.7914L13.9475 21.8604L12.3484 21.7271L11.5044 21.5494L11.2823 21.4162L11.5488 19.3285L11.7265 17.152L11.9042 14.0427L11.9486 12.9766V11.5108L11.7709 10.578L11.7265 10.0006L11.8154 9.46756L12.0374 9.06779L12.1707 8.8457L12.2151 8.6236V7.20221L12.304 4.8036L12.4816 1.16128L12.5261 0.672672L12.7037 0.494997L12.9702 0.40616H13.37L13.9919 0.494997V0.40616L14.0807 0.361742L14.5693 0.40616L14.9691 0.494997H15.9463L18.7002 0.40616L20.5658 0.272904Z" fill="#191919"/>
<path d="M0.799535 0.00639259L1.02163 0.0952298L1.4214 0.361742L1.68791 0.450579L3.1093 0.583835L3.37581 0.628253L3.46465 0.450579L3.90884 0.494997L4.13093 0.583835L6.4407 0.628253H8.21744L9.01698 0.583835L9.68326 0.494997H10.083L10.2163 0.583835V0.939184L9.94977 1.78314L9.86093 2.22732L9.7721 3.42663L9.68326 5.29221V8.26826L9.90535 9.20105L10.3051 10.4448L10.4384 11.0666V11.5108L10.2607 11.9994L9.99419 12.5324L9.94977 12.6657L9.90535 13.1987V19.5062L10.0386 21.1941L10.083 21.7715L9.94977 21.9048L9.68326 21.9492L9.0614 21.8159L6.97372 21.9048H4.21977L3.3314 21.8159L3.24256 21.7715V21.5494H2.70954L1.33256 21.4162L0.533023 21.2829L0.266512 21.1941V19.8615L0.444186 16.2636L0.488605 14.8866V12.799L0.399768 11.9106L0.222093 11.1999L0 10.578V10.1783L0.266512 9.51198L0.488605 8.93453L0.577442 8.53477L0.621861 7.95733L0.666279 6.40267V2.49384L0.621861 1.38337V0.272904L0.799535 0.00639259Z" fill="#929292"/>
<path d="M16.7458 0.850346H17.3677L17.9895 0.983602L18.5226 1.2057L18.9668 1.51663L19.2777 1.82756L19.5442 2.27174L19.8107 3.07128L20.0328 4.09291L20.1216 4.84802V6.62477L20.0328 6.58035L19.7219 4.09291L19.633 3.6043H19.5442L19.6775 4.22616L19.633 4.40384L19.5886 4.44825V4.98128L19.8551 6.49151L20.0328 7.06895L19.8551 7.77965L19.633 8.40151L19.4109 8.80128L19.1888 9.06779L18.6558 9.3343L18.0784 9.46756L16.0351 9.68965L15.6354 9.82291L15.6798 10.045L15.9463 10.1338L18.4781 10.2671L19.1444 10.4003L19.7663 10.7113L20.0328 10.9334L20.0772 11.0222V11.3331L19.9884 11.422L20.0772 11.955L20.1216 12.1327H20.2105V11.6885L20.4326 11.8217L20.6102 11.9106L20.7879 12.488L20.9656 13.5097L21.0988 14.398V14.8422L21.0544 14.9755L21.1433 15.242L21.2321 16.2192V16.5745L21.1877 16.841V17.5073L21.2321 17.8183V18.2624L21.0988 18.8843L20.8768 19.4617L20.5658 19.9948L20.0772 20.5278L19.8995 20.661H19.8107L19.7663 20.3057L19.8107 20.2613V19.9948L19.7219 20.3057V20.7499L19.1 21.0608L18.3005 21.3273L17.8119 21.4162H17.4121L17.0568 21.3273L16.7014 21.0608L16.5237 20.7055L16.3905 19.9504L16.2572 18.4401L16.1684 16.5745L16.0795 13.865L15.9463 12.4436L15.7686 11.422L15.5909 10.889L15.3244 10.4892L14.8802 10.045L14.8358 9.95616V9.64523L15.0135 9.3343L15.3688 8.93453L15.5909 8.49035L15.6798 8.09058V7.11337L15.5021 5.42546L15.1023 2.36058L15.0579 1.64988L15.1912 1.42779L15.4577 1.29453L15.9907 1.16128L16.5237 0.894765L16.7458 0.850346Z" fill="#929292"/>
<path d="M29.3607 0.939184H29.7605L30.2047 0.983602H31.8482L32.0258 1.07244L32.0702 1.64988L32.2923 1.60546L32.3368 1.38337L32.5144 1.47221L32.6477 1.60546L32.5589 2.44942L32.7365 2.36058L32.7809 2.71593L32.9586 2.53825L33.003 2.36058H33.0919L33.3584 3.29337L33.4472 4.00407V5.5143L33.314 6.89128L33.1807 7.77965L33.0475 7.73523L32.9586 7.55756V8.04616L33.0919 8.17942L33.0475 8.57919L32.7809 9.46756L32.47 10.1338L32.4256 10.7557L32.2479 10.9778L31.8482 11.1555H31.7593V8.57919L31.6705 8.71244H31.5816V8.135H31.4928V8.75686L31.5816 8.89012V9.82291L31.4928 9.95616L31.3595 10.0006V10.4448L31.404 10.6224L31.4928 10.3559L31.5816 10.4003L31.7149 11.1555L31.3151 11.2887L29.6716 11.5552L28.65 11.6885L28.5168 11.7329V11.9994L28.9609 12.0883L30.6044 12.1771L31.404 12.3548L31.9814 12.6657L32.1591 12.8878L32.2035 13.1987L32.5589 13.332L32.8698 13.8206L33.0475 14.2648L33.1807 14.931L33.2251 15.5085V16.5745L33.1363 17.8183L32.9586 18.6622L32.6921 19.3729L32.3368 19.9059L31.937 20.3057L31.5372 20.5278V20.2613L31.6261 20.1724L31.6705 19.4617L31.5372 18.9731L31.4484 19.7283V20.5722L30.8709 20.7499L29.7605 20.8387L29.0498 20.7943L28.6944 20.6166L28.4723 20.3501L28.3391 19.8171L28.2502 18.7066V17.7294L28.3391 16.4413L28.4723 14.8422V13.2431L28.2947 12.6657L27.9837 12.1327L27.9393 11.9994V11.5108L28.117 11.2443L28.3835 10.889L28.5612 10.4003L28.7389 9.55639L28.8721 8.22384L28.9609 6.04732L29.0498 3.38221L29.0942 1.2057L29.2719 0.983602L29.3607 0.939184Z" fill="#929292"/>
<path d="M35.8014 0.228486L35.9791 0.317323L36.2012 0.539416L36.3789 0.628253L37.0896 0.672672L39.3105 0.761509L39.6214 0.850346V1.33895L39.4882 2.31616L39.2216 5.20337L39.1772 5.86965V7.15779L39.3993 9.24547L39.4437 9.82291V10.8445L39.2661 11.422L39.2216 11.6885L39.1772 12.3992L39.1328 15.775L38.9996 20.8387L38.9551 21.5938L38.6886 21.7271L37.9779 21.8159H36.6009L35.7126 21.6827L35.3572 21.505L35.1796 21.2829V20.4834L35.6237 14.6201L35.6682 14.0871V12.9322L35.6237 12.3992L35.7126 12.0883V11.6885L35.5349 11.0222L35.224 10.045L35.3128 9.82291L35.6237 9.15663L35.8014 8.49035L35.8458 8.09058V7.24663L35.8014 5.73639L35.757 2.53825L35.9791 1.6943L36.2456 0.939184L36.29 0.71709H35.7126L35.8014 0.672672V0.228486Z" fill="#7A7A7A"/>
<path d="M12.9702 0.40616H13.37L13.9919 0.494997L14.214 0.983602L14.5249 2.58267L14.9247 4.67035L15.0579 5.64756L15.1023 6.18058V7.91291L14.9691 8.71244L14.747 9.24547L14.5249 9.60081L14.4361 9.86733L14.4805 10.2671L14.6581 10.5336L15.0135 10.9334L15.2356 11.4664L15.4133 12.3992L15.5909 14.1759L15.6798 16.0859V17.0631L15.5465 19.5062V21.3717L15.6354 21.6827V21.8159L15.28 21.9936H14.7914L13.9475 21.8604L12.3484 21.7271L11.5044 21.5494L11.2823 21.4162L11.5488 19.3285L11.7265 17.152L11.9042 14.0427L11.9486 12.9766V11.5108L11.7709 10.578L11.7265 10.0006L11.8154 9.46756L12.0374 9.06779L12.1707 8.8457L12.2151 8.6236V7.20221L12.304 4.8036L12.4816 1.16128L12.5261 0.672672L12.7037 0.494997L12.9702 0.40616Z" fill="#7A7A7A"/>
<path d="M23.6307 0.228486L23.8528 0.317323L23.9861 0.450579L24.4302 0.494997L25.5851 0.539416H26.1626L26.9621 0.494997L27.3175 0.40616L27.4507 0.361742L27.4951 0.450579L27.5395 2.405L27.584 3.29337L27.6284 6.18058L27.7616 6.9357L28.0726 8.04616L28.2502 8.49035L28.2058 9.15663L28.0282 10.4892L27.9393 10.9334L27.4951 11.2443L27.3619 11.5108V11.9994L27.6284 12.7101L27.8505 13.3764L27.9837 14.0427L28.0282 14.6201V15.0643L27.8949 16.3524L27.2286 21.2385L28.0282 21.2829L28.65 21.3717L28.4723 21.4606L27.9393 21.5494L27.0954 21.5938L25.9849 21.505L25.5407 21.4162L25.4519 21.1052L25.0077 14.931L24.8744 13.2431L24.6968 11.955L24.4747 10.9778L24.2526 10.2227V9.77849L24.4302 9.42314L24.4747 9.24547V8.135L24.3858 6.75802L24.0749 3.64872L23.8528 1.38337L23.7195 0.71709L23.5419 0.40616L23.6307 0.228486Z" fill="#7A7A7A"/>
<path d="M0.799535 0.00639259L1.02163 0.0952298L1.4214 0.361742L1.68791 0.450579L3.1093 0.583835L3.42023 0.672672L3.55349 0.939184L3.59791 1.82756L3.68675 5.60314V9.82291L3.50907 10.2671L3.1093 10.8445L2.97605 11.1555V11.4664L3.19814 11.9994L3.42023 12.5769L3.59791 13.332L3.68675 14.0427V15.8194L3.42023 20.0836L3.28698 21.5938L1.68791 21.4606L0.755117 21.3273L0.266512 21.1941V19.8615L0.444186 16.2636L0.488605 14.8866V12.799L0.399768 11.9106L0.222093 11.1999L0 10.578V10.1783L0.266512 9.51198L0.488605 8.93453L0.577442 8.53477L0.621861 7.95733L0.666279 6.40267V2.49384L0.621861 1.38337V0.272904L0.799535 0.00639259Z" fill="#7A7A7A"/>
<path d="M3.46466 0.450579L3.90884 0.494997L4.13094 0.583835L6.4407 0.628253H8.21745L9.01698 0.583835L9.68326 0.494997H10.083L10.2163 0.583835V0.939184L9.94977 1.78314L9.86094 2.22732L9.7721 3.42663L9.68326 5.29221V8.26825L9.90536 9.20105L10.3051 10.4448L10.4384 11.0666V11.5108L10.2607 11.9994L9.99419 12.5324L9.94977 12.6657L9.90536 13.1987V19.5062L10.0386 21.1941L10.083 21.7715L9.94977 21.9048L9.68326 21.9492L9.0614 21.8159L6.97373 21.9048H4.21977L3.3314 21.8159L3.24256 21.7715L3.37582 20.0836L3.64233 15.8194V14.0427L3.50908 13.1099L3.28698 12.3103L2.97605 11.5997L2.93163 11.4664V11.1555L3.19814 10.6224L3.50908 10.1783L3.64233 9.82291V5.60314L3.55349 1.82756L3.50908 0.939184L3.37582 0.672672L3.42024 0.494997L3.46466 0.450579ZM4.70838 1.11686L4.30861 1.25011L4.08652 1.47221L3.99768 1.6943L3.95326 2.405V4.53709L4.0421 5.86965L4.26419 7.82407V8.97895L4.17535 9.60081L3.95326 10.2227L3.55349 10.8445L3.42024 11.2443V11.9106L3.64233 12.6657L3.82001 13.4652L3.90884 14.2203L3.95326 15.1976V20.0392L3.99768 20.7055L4.13094 21.0608L4.30861 21.2829L4.57512 21.4162L4.79721 21.4606L5.46349 21.4162L6.26303 21.1941L7.06256 20.8387L7.1514 20.7499V20.439L7.19582 20.7055L7.41791 20.6166L7.90652 20.128L8.26187 19.4617L8.43954 18.7955L8.5728 17.8183V16.1748L8.43954 15.1087L8.21745 14.2203L7.99536 13.6429L7.68443 13.0655L7.32908 12.6213L6.79605 12.2659H6.70722V12.6213L6.75163 12.7545H6.61838V12.2215L5.90768 11.9994L4.88605 11.8662L3.95326 11.7329L4.0421 11.5552L4.26419 11.5108H6.26303L6.79605 11.2887L7.19582 10.9778L7.55117 10.4892L7.8621 9.86732L8.08419 9.20105L8.21745 8.49035L8.30629 7.4243V5.15895L8.26187 3.82639L8.12861 3.16011L7.90652 2.62709L7.72884 2.36058L7.55117 2.49384L7.50675 2.09407L7.19582 1.82756L6.57396 1.47221L5.90768 1.25011L5.2414 1.11686H4.70838Z" fill="#191919"/>
<path d="M60.1872 8.97895H61.0312L61.2977 9.11221L61.5198 9.37872L61.8307 10.4448L62.8079 13.9983L63.2521 12.3992L64.0072 9.64523L64.2293 9.20105L64.5402 9.02337L64.7179 8.97895H65.5619L65.9172 9.15663L66.0505 9.3343L66.2282 10.1338L67.1609 15.0643L67.4275 16.4857V16.8855L67.2498 17.2408L66.85 17.4185H65.8284L65.7395 17.152L64.94 12.5769L64.8956 12.488L64.0072 15.8194L63.6075 17.2852L63.563 17.3741L62.8523 17.4629L61.964 17.5073L61.5198 15.9083L60.6314 12.5769L60.4537 13.4652L59.7875 17.2408L59.6986 17.4185H58.677L58.4105 17.2852L58.2328 17.0631L58.1884 16.9743V16.3969L59.4765 9.64523L59.6542 9.24547L60.0095 9.02337L60.1872 8.97895Z" fill="#191919"/>
<path d="M44.9516 8.97895H46.5507L47.2614 9.11221L47.7944 9.3343L48.1942 9.60081L48.5495 10.0006L48.7716 10.4892L48.8605 10.8445V11.7329L48.7272 12.1771L48.5051 12.5769L48.2386 12.9322L48.594 13.2431L48.9049 13.7317L49.0382 14.1315L49.0826 14.398V15.242L48.9049 15.9527L48.6384 16.4413L48.3275 16.7966L47.75 17.152L47.0837 17.3741L46.4175 17.4629H45.307L44.3298 17.3741L43.6191 17.1964V15.9971L43.6635 9.15663L44.0633 9.06779L44.9516 8.97895ZM45.3958 10.5336L45.3514 11.2887V12.2659H46.373L46.8172 12.1327L47.0837 11.9106L47.1726 11.6441V11.1555L47.0393 10.889L46.8172 10.7113L46.4619 10.578L46.1954 10.5336H45.3958ZM45.84 13.7317L45.3514 13.7762V15.8638L45.7068 15.9083H46.1065L46.684 15.8194L47.1282 15.5973L47.3058 15.3308L47.3947 14.931L47.3502 14.4424L47.1726 14.0871L46.8172 13.865L46.5063 13.7762L45.84 13.7317Z" fill="#191919"/>
<path d="M70.4035 8.97895H72.0026L72.7133 9.11221L73.2463 9.3343L73.6461 9.60081L74.0014 10.0006L74.2235 10.4892L74.3123 10.889V11.7329L74.1791 12.1771L73.957 12.5769L73.6905 12.9322L74.0458 13.2431L74.3568 13.7317L74.49 14.1315L74.5344 14.398V15.242L74.3568 15.9527L74.0903 16.4413L73.8237 16.7522L73.3796 17.0631L72.7133 17.3297L71.8693 17.4629H70.7589L69.7817 17.3741L69.071 17.1964L69.1154 9.15663L69.5151 9.06779L70.4035 8.97895ZM70.8477 10.5336L70.8033 11.111V12.2659H71.8249L72.2691 12.1327L72.4912 11.955L72.6244 11.6441V11.1555L72.4912 10.889L72.2691 10.7113L71.9137 10.578L71.6472 10.5336H70.8477ZM71.2475 13.7317L70.8033 13.7762V15.8638L71.1142 15.9083H71.5584L72.1358 15.8194L72.58 15.5973L72.7577 15.3308L72.8465 14.931L72.8021 14.4424L72.6244 14.0871L72.2691 13.865L71.9137 13.7762L71.2475 13.7317Z" fill="#191919"/>
<path d="M78.7986 8.93453H79.3317L79.9535 9.02337L80.5754 9.24546L81.1084 9.55639L81.5526 9.95616L81.9523 10.4892L82.2633 11.1555L82.4854 11.9994L82.5742 12.799V13.6873L82.441 14.6645L82.2189 15.3752L81.8635 16.0859L81.4193 16.619L80.8863 17.0187L80.3533 17.2852L79.6426 17.4629H78.3989L77.7326 17.2852L77.1996 17.0187L76.7998 16.7078L76.4 16.308L76.0891 15.8194L75.7782 15.1087L75.6005 14.3092L75.5561 13.9538V12.488L75.6893 11.6885L75.9114 10.9778L76.2668 10.3115L76.7554 9.77849L77.1107 9.46756L77.8214 9.11221L78.3544 8.97895L78.7986 8.93453ZM79.0207 10.4892L78.4877 10.578L78.0435 10.8445L77.7326 11.1999L77.4661 11.7329L77.3328 12.2659L77.2884 12.5769V13.865L77.4217 14.5313L77.6437 15.1087L77.9547 15.5085L78.31 15.775L78.7098 15.9083H79.4205L79.9535 15.6862L80.3533 15.2864L80.6198 14.7534L80.7975 13.9538V12.488L80.6642 11.8217L80.4421 11.2887L80.1312 10.889L79.7314 10.6224L79.4649 10.5336L79.0207 10.4892Z" fill="#191919"/>
<path d="M87.1493 8.93453H87.6824L88.3042 9.02337L88.9705 9.24546L89.4591 9.55639L89.9033 9.95616L90.2586 10.4003L90.614 11.111L90.7917 11.6885L90.9249 12.488V13.9538L90.7472 14.931L90.4807 15.6417L90.1698 16.1748L89.6812 16.7078L89.1926 17.0631L88.704 17.2852L88.0377 17.4629H86.794L86.1277 17.2852L85.5058 16.9743L85.0617 16.619L84.7063 16.2192L84.351 15.5973L84.1289 15.0199L83.9512 14.1315L83.9068 13.7317V12.7545L83.9956 11.9994L84.2177 11.1555L84.573 10.4448L84.9284 9.95616L85.2393 9.64523L85.8612 9.24546L86.5275 9.02337L87.1493 8.93453ZM87.3714 10.4892L86.8828 10.578L86.5275 10.7557L86.3054 10.9334L85.9944 11.3776L85.7724 11.955L85.6835 12.3992L85.6391 12.8878V13.5985L85.7279 14.2648L85.9056 14.8866L86.1721 15.3308L86.5275 15.6862L86.8828 15.8638L87.0605 15.9083H87.7712L88.171 15.775L88.5707 15.4641L88.8817 15.0199L89.1037 14.3536L89.1926 13.6873V12.7101L89.0593 11.9106L88.8372 11.3331L88.5707 10.9778L88.2598 10.7113L87.8156 10.5336L87.3714 10.4892Z" fill="#191919"/>
<path d="M53.4356 8.97895H53.8354L54.1907 9.11221L54.4572 9.42314L55.2568 11.7329L55.8786 13.5097L56.6337 15.6862L56.9447 16.619L56.9003 17.0187L56.6337 17.3297L56.3672 17.4185H55.39L54.857 15.8638L54.7237 15.3308H52.1919L52.103 15.7306L51.5256 17.4185H50.5484L50.193 17.2408L50.0154 16.9299V16.5745L50.7705 14.398L52.2807 10.1338L52.5028 9.51198L52.8137 9.15663L53.1247 9.02337L53.4356 8.97895ZM53.4356 11.5997L52.7249 13.6873V13.7762L54.1907 13.8206L54.1463 13.5097L53.48 11.5997H53.4356Z" fill="#191919"/>
<path d="M66.9833 0.894765H67.4275L67.7384 1.07244L68.4935 2.31616L69.2486 3.6043L69.6928 4.315L69.7372 4.35942V1.42779L69.9593 1.07244L70.1814 0.939184L70.3591 0.894765H70.8477L71.1142 1.07244L71.2475 1.25011V7.46872L71.203 7.51314L70.2258 7.60198H69.9149L69.5151 6.98012L68.9821 6.09174L68.227 4.84802L67.8716 4.27058L67.8272 7.51314L66.8056 7.60198H66.317V6.35825L66.3614 1.38337L66.4947 1.16128L66.7168 0.983602L66.9833 0.894765Z" fill="#191919"/>
<path d="M44.4186 0.894765H46.0177L46.5951 1.02802L47.0837 1.29453L47.3502 1.51663L47.6168 1.96081L47.75 2.405V3.16011L47.5723 3.6043L47.3947 3.87081L47.3502 4.04849L47.5723 4.27058L47.7944 4.62593L47.9277 5.15895V5.78081L47.7944 6.35825L47.5279 6.80244L47.3502 7.02453L46.8616 7.33546L46.1509 7.55756L45.7068 7.60198H45.0849L44.1077 7.51314L43.5302 7.37988V1.47221L43.5747 1.02802L44.0188 0.939184L44.4186 0.894765ZM45.0849 2.27174L45.0405 3.38221L45.0849 3.42663H45.6623L46.0621 3.29337L46.2398 3.1157L46.2842 2.76035L46.1509 2.44942L45.8844 2.31616L45.7068 2.27174H45.0849ZM45.0405 4.75918V6.18058H45.84L46.1954 6.04732L46.373 5.82523L46.4175 5.73639V5.24779L46.2842 4.98128L46.0177 4.8036L45.84 4.75918H45.0405Z" fill="#191919"/>
<path d="M76.2668 0.894765H77.8658L78.4433 1.02802L78.9319 1.29453L79.154 1.47221L79.4649 1.96081L79.5982 2.44942V3.07128L79.4649 3.51546L79.1984 3.91523V4.04849L79.5537 4.44825L79.7314 4.93686L79.7758 5.24779V5.69198L79.6426 6.31384L79.4205 6.75802L79.0207 7.15779L78.4877 7.4243L77.9547 7.55756L77.5549 7.60198H76.8886L75.9114 7.51314L75.3784 7.37988V1.07244L75.5561 0.983602L76.2668 0.894765ZM76.933 2.27174L76.8886 2.36058V3.38221L76.933 3.42663H77.4661L77.8658 3.33779L78.0879 3.1157V2.58267L77.8214 2.36058L77.5549 2.27174H76.933ZM76.8886 4.75918V6.18058H77.6882L78.0879 6.00291L78.2212 5.82523L78.2656 5.69198V5.24779L78.1323 4.98128L77.8658 4.8036L77.6882 4.75918H76.8886Z" fill="#191919"/>
<path d="M62.0084 0.850346H62.6303L63.2965 0.983602L63.9184 1.29453L64.407 1.73872L64.8068 2.36058L65.0289 3.02686L65.1177 3.51546L65.1621 4.35942L65.0733 5.24779L64.8512 6.00291L64.5847 6.49151L64.1849 6.9357L63.874 7.20221L63.341 7.46872L62.7635 7.60198H61.8751L61.2089 7.4243L60.6758 7.11337L60.1872 6.62477L59.8763 6.09174L59.6542 5.38105L59.5654 4.84802V3.64872L59.6986 2.8936L59.9207 2.31616L60.1872 1.87197L60.587 1.42779L61.0756 1.11686L61.5198 0.939184L62.0084 0.850346ZM62.0084 2.27174L61.653 2.44942L61.3865 2.76035L61.1644 3.29337L61.0756 3.82639V4.67035L61.2089 5.33663L61.431 5.78081L61.8307 6.13616L62.1416 6.225H62.5414L62.8968 6.09174L63.2521 5.78081L63.4742 5.33663L63.6075 4.71477V3.73756L63.4742 3.1157L63.2521 2.67151L62.8968 2.36058L62.6747 2.27174H62.0084Z" fill="#191919"/>
<path d="M55.3012 0.894765H56.8114L57.3889 1.02802L57.833 1.25011L58.2772 1.64988L58.5437 2.1829L58.6326 2.58267V3.33779L58.4993 3.87081L58.2328 4.315L57.7886 4.71477L57.5665 4.8036L57.9219 5.42546L58.3661 6.18058L58.7214 6.66918L58.9435 6.9357V7.02453L58.7214 7.24663L58.3216 7.51314L58.0107 7.60198L57.611 7.55756L57.3444 7.37988L57.0779 7.06895L56.3672 5.73639L56.0119 5.11453L55.9675 5.07011L55.923 7.51314L54.857 7.60198H54.3684L54.4128 1.02802L54.9014 0.939184L55.3012 0.894765ZM55.923 2.27174V3.69314H56.6782L57.0335 3.51546L57.1223 3.29337V2.62709L57.0335 2.44942L56.6337 2.27174H55.923Z" fill="#191919"/>
<path d="M82.8407 0.894765H83.4182L83.6847 1.02802L83.8623 1.25011L84.1289 1.96081L85.0617 4.67035L85.6835 6.44709L85.7724 6.7136V7.15779L85.5947 7.4243L85.3282 7.55756H84.4842L84.351 7.33546L83.9512 6.09174V5.95849H82.13L81.9968 6.44709L81.6414 7.51314L81.597 7.55756H80.753L80.4865 7.4243L80.3089 7.15779V6.7136L81.1972 4.18174L81.9523 2.04965L82.2633 1.25011L82.5742 0.983602L82.8407 0.894765ZM83.0184 3.29337L82.6186 4.40384L82.5742 4.58151H83.4626L83.4182 4.35942L83.0628 3.29337H83.0184Z" fill="#191919"/>
<path d="M86.4386 0.894765H86.9716L87.2382 1.02802L87.4603 1.38337L88.0821 2.67151L88.393 3.33779V3.42663H88.4819L88.6151 3.02686L89.3703 1.38337L89.5479 1.11686L89.8144 0.939184L89.9477 0.894765H90.4807L90.7028 1.02802L90.8805 1.25011V1.60546L90.3919 2.67151L89.4591 4.58151L89.1926 5.15895L89.1482 7.46872L89.1037 7.51314L88.0821 7.60198H87.5935V5.15895L85.95 1.87197L85.8612 1.47221L85.9944 1.11686L86.261 0.939184L86.4386 0.894765Z" fill="#191919"/>
<path d="M49.0382 0.894765H49.5712L49.8377 1.02802L50.0598 1.38337L50.6372 2.62709L50.9926 3.38221L51.1258 3.20453L51.7921 1.73872L52.103 1.11686L52.3695 0.939184L52.5472 0.894765H53.0802L53.3468 1.07244L53.48 1.33895L53.4356 1.6943L52.947 2.71593L52.3251 4.00407L51.7921 5.11453L51.7477 5.95849L51.7033 7.51314L50.6816 7.60198H50.193V5.20337L49.7044 4.18174L48.8161 2.44942L48.5051 1.78314L48.4607 1.38337L48.594 1.11686L48.8605 0.939184L49.0382 0.894765Z" fill="#191919"/>
<path d="M60.0096 19.0176H60.6758L61.12 19.2397L61.3865 19.595L61.4754 19.8615L61.5198 20.439L61.431 20.8831L61.2977 21.1497L61.12 21.3717L60.8091 21.5494L60.6314 21.5938H60.0096L59.6098 21.4162L59.3433 21.1052L59.21 20.7499L59.1656 20.4834V20.128L59.2989 19.595L59.5654 19.2397L60.0096 19.0176ZM60.0984 19.2841L59.8319 19.4173L59.6098 19.6838L59.521 19.9059V20.7055L59.6986 21.0608L59.9651 21.2829L60.054 21.3273H60.6314L60.9868 21.1052L61.1644 20.7055V19.9059L60.9423 19.4617L60.587 19.2841H60.0984Z" fill="#929292"/>
<path d="M48.6828 19.0176H49.3491L49.7933 19.2397L50.0598 19.595L50.1486 19.8615L50.193 20.3501L50.1042 20.8831L49.8377 21.3273L49.4823 21.5494L49.3047 21.5938H48.6828L48.283 21.4162L48.0165 21.1052L47.8833 20.7943L47.8389 20.5278V20.0836L47.9277 19.6838L48.1498 19.3285L48.4163 19.1064L48.6828 19.0176ZM48.7272 19.2841L48.4607 19.4617L48.283 19.6838L48.1942 19.9059L48.1498 20.439L48.283 20.972L48.5051 21.1941L48.7272 21.3273H49.3047L49.5712 21.1497L49.7489 20.9276L49.8377 20.661V19.9504L49.7044 19.595L49.4823 19.3729L49.2602 19.2841H48.7272Z" fill="#929292"/>
<path d="M85.1505 19.0176H85.7723L86.2165 19.2397L86.4386 19.5062L86.5719 19.8171L86.6163 20.0836V20.5278L86.5275 20.9276L86.261 21.3273L85.9056 21.5494L85.7723 21.5938H85.1061L84.6619 21.3717L84.4842 21.1497L84.3065 20.7055V19.9059L84.4842 19.4617L84.6619 19.2397L84.9728 19.062L85.1505 19.0176ZM85.1949 19.2841L84.9284 19.4173L84.7063 19.6838L84.6175 19.9504V20.661L84.7507 21.0164L85.0617 21.2829L85.1505 21.3273H85.7279L86.0389 21.1497L86.2165 20.8831L86.3054 20.3945L86.261 19.8615L86.0833 19.5062L85.8612 19.3285L85.7279 19.2841H85.1949Z" fill="#929292"/>
<path d="M80.4865 19.0176H81.1528L81.5082 19.1952L81.8191 19.5506L81.9523 19.9059V20.661L81.7747 21.1497L81.4637 21.4606L81.1084 21.5938H80.4865L80.1312 21.4606L79.8203 21.1052L79.6426 20.6166V19.9948L79.7758 19.5506L80.1312 19.1508L80.4865 19.0176ZM80.531 19.2841L80.1756 19.5062L79.9979 19.8615L79.9535 20.0836V20.5278L80.0868 20.972L80.2644 21.1941L80.531 21.3273H81.064L81.3305 21.1941L81.5526 20.9276L81.6414 20.6166V19.9948L81.5082 19.595L81.1972 19.3285L81.064 19.2841H80.531Z" fill="#929292"/>
<path d="M68.4047 19.062H69.5151L69.7816 19.1952L70.0037 19.4617L70.0482 19.8171L69.9593 20.128L69.7372 20.3501L69.5596 20.4834L70.1814 21.4606V21.5938H69.8705L69.4263 20.8831L69.2486 20.5722L68.7156 20.5278V21.5494L68.4935 21.5938L68.4047 21.5494V19.062ZM68.76 19.2841L68.7156 19.3285V20.2613H69.3375L69.604 20.128L69.6928 19.9948V19.5506L69.5151 19.3729L69.4263 19.3285L68.76 19.2841Z" fill="#929292"/>
<path d="M75.334 19.062H76.4444L76.7998 19.1952L77.1107 19.4617L77.2884 19.8171L77.3328 20.0836V20.5278L77.1996 20.972L76.9775 21.2829L76.6665 21.4606L76.4 21.5494L75.867 21.5938H75.334V19.062ZM75.6449 19.2841L75.6005 19.3285V21.2829L75.7337 21.3273L76.4 21.2829L76.7554 21.0608L76.933 20.8387L77.0219 20.439L76.9775 19.9059L76.8442 19.6394L76.5333 19.3729L76.0447 19.2841H75.6449Z" fill="#929292"/>
<path d="M88.8372 19.062H89.9033L90.2586 19.2397L90.3919 19.4173L90.4363 19.5506V19.9948L90.2586 20.2613L89.9921 20.439L90.2142 20.8831L90.614 21.505L90.4363 21.5938L90.2586 21.5494L89.9921 21.1497L89.6812 20.6166V20.5278H89.1482V21.5494H88.8372V19.062ZM89.1482 19.2841V20.2613H89.77L89.9921 20.128L90.1254 19.9504V19.595L89.9477 19.3729L89.8589 19.3285L89.1482 19.2841Z" fill="#929292"/>
<path d="M63.9184 19.062H64.2293L64.2737 20.8831L64.407 21.1497L64.6291 21.2829H65.1621L65.4286 21.1052L65.5175 20.8831L65.5619 19.062H65.8728V20.8387L65.7396 21.2385L65.4286 21.505L65.1621 21.5938H64.5847L64.2737 21.4606L64.0072 21.1497L63.9184 20.8387V19.062Z" fill="#929292"/>
<path d="M55.1235 19.062H55.4344L55.8786 19.8615L56.0563 20.2169L56.234 19.9948L56.7226 19.062H57.0779L56.767 19.6838L56.2784 20.5722L56.234 21.5494L56.1451 21.5938L55.923 21.5494L55.8786 20.5278L55.3012 19.4617L55.1235 19.1508V19.062Z" fill="#929292"/>
<path d="M43.8412 19.062H45.7068V19.3285H44.9072V21.5494L44.7295 21.5938L44.6407 21.5494V19.3285H43.8412V19.062Z" fill="#929292"/>
<path d="M31.9814 3.69314L32.0702 3.78197L32.1147 4.00407L32.1591 6.26942L32.0702 6.66918L31.9814 6.75802L31.8926 5.78081V4.58151L31.9814 4.40384L31.937 4.18174L31.8926 4.13732V3.82639L31.9814 3.69314Z" fill="#073930"/>
<path d="M32.5588 4.67035H32.6033V5.86965L32.47 6.26942H32.3812L32.3368 6.18058V5.55872L32.47 4.8036L32.5588 4.67035Z" fill="#073930"/>
<path d="M18.7002 4.27058H18.7447V5.15895L18.8335 5.33663V5.82523L18.7002 5.69198L18.5226 5.38105V4.8036L18.6558 4.315L18.7002 4.27058Z" fill="#073930"/>
<path d="M8.12861 4.62593H8.21745L8.17303 6.13616L8.03977 6.09174L7.99535 5.78081V5.42546L7.90652 5.86965H7.81768L7.90652 5.29221L8.08419 4.71477L8.12861 4.62593Z" fill="#073930"/>
<path d="M7.19582 16.2636L7.37349 16.3969V17.3741L7.24024 17.4185L7.28465 17.7738L7.1514 17.9071L7.10698 17.7738V17.2852L7.19582 17.152V16.2636Z" fill="#073930"/>
<path d="M7.19582 17.9959H7.28465L7.37349 18.1736V18.7066L7.06256 18.8399H6.97372V18.3069L7.1514 18.1292L7.19582 17.9959Z" fill="#073930"/>
<path d="M19.3665 15.9083L19.4554 15.9527L19.5886 16.6634V17.5073L19.4998 17.5962L19.4109 17.4185V16.5745L19.3665 16.3969V15.9083Z" fill="#073930"/>
<path d="M31.8926 16.3969H31.9814L32.0258 16.9743L31.8481 17.0631L31.8926 17.3297V17.7738L31.8037 17.685L31.7149 17.4185L31.6705 16.7966L31.8481 16.7522V16.4413L31.8926 16.3969Z" fill="#073930"/>
<path d="M6.57396 13.7317L6.6628 13.7762L6.70722 13.9538V14.3092L6.52954 14.398L6.48512 14.8866H6.39629L6.35187 14.7534V14.3536L6.52954 13.7762L6.57396 13.7317Z" fill="#073930"/>
<path d="M19.5886 17.7738H19.6774L19.7219 17.8627V18.3957L19.5886 18.3513V18.4845L19.4109 18.3957L19.3665 18.3069V17.9959L19.5442 18.0403V17.8183L19.5886 17.7738Z" fill="#073930"/>
<path d="M17.9007 1.38337L18.034 1.42779L18.0784 1.78314L18.034 1.82756V2.27174L17.8563 2.22732L17.8119 2.1829V1.60546L17.9007 1.38337Z" fill="#073930"/>
<path d="M18.4781 13.5985H18.567V13.6873L18.7002 13.7317L18.6114 14.2648L18.567 14.6201L18.4781 14.5313L18.4337 14.398V13.6429L18.4781 13.5985Z" fill="#073930"/>
<path d="M19.3665 13.9538L19.4998 13.9983L19.5886 14.1759L19.633 14.6645V15.1087L19.5442 15.0643L19.3665 14.2204V13.9538Z" fill="#073930"/>
<path d="M18.9223 7.4243L19.0112 7.51314L19.1 8.135V8.40151L18.8335 8.135L18.8779 7.46872L18.9223 7.4243Z" fill="#073930"/>
<path d="M17.6342 4.89244H17.7674L17.8563 5.42546L17.9007 6.09174L17.8119 6.18058L17.723 5.78081L17.6342 4.89244Z" fill="#073930"/>
<path d="M6.88489 5.07011H6.92931L6.97373 5.73639L6.92931 6.35825H6.79605L6.75163 6.225V5.86965L6.84047 5.5143L6.88489 5.07011Z" fill="#073930"/>
<path d="M32.5588 13.865H32.6477V14.4869L32.6033 14.5757L32.47 14.5313L32.3812 14.0871L32.4256 13.9094L32.5588 13.865Z" fill="#073930"/>
<path d="M31.8926 7.15779L31.9814 7.20221L31.937 7.4243L31.8037 7.55756H31.7149L31.8926 8.04616L31.8481 8.17942L31.6261 7.82407V7.51314L31.8926 7.15779Z" fill="#073930"/>
<path d="M7.90652 7.73523L8.03977 7.86849L8.08419 8.17942L8.03977 8.31267H7.95094V8.53477H7.8621L7.81768 8.04616L7.90652 7.73523Z" fill="#073930"/>
<path d="M19.2777 11.7773H19.4109L19.4554 12.6213L19.3221 12.488L19.2333 12.2659V11.8217L19.2777 11.7773Z" fill="#073930"/>
<path d="M18.6114 15.5973L18.7891 15.6862V16.0415L18.8335 16.0859V16.3969L18.7447 16.3524L18.6558 16.0415L18.567 15.9527V15.6862L18.6114 15.5973Z" fill="#073930"/>
<path d="M7.50674 14.2203H7.59558L7.68442 14.398V15.3752L7.59558 15.2864L7.55116 14.4424L7.50674 14.2203Z" fill="#073930"/>
<path d="M19.6774 18.751L19.7663 18.7955L19.8995 19.1952V19.4617H19.8107L19.7663 19.1508L19.633 19.1064V18.7955L19.6774 18.751Z" fill="#073930"/>
<path d="M6.35187 15.9527L6.52954 15.9971L6.57396 16.4857L6.48512 16.5745L6.35187 16.3524V15.9527Z" fill="#073930"/>
<path d="M18.5226 8.26826L18.6558 8.31267L18.7891 8.6236V8.93453L18.6558 8.80128L18.5226 8.40151V8.26826Z" fill="#073930"/>
<path d="M7.68443 3.20453L7.77326 3.38221L7.72884 3.78197H7.64001L7.55117 3.55988L7.59559 3.33779L7.68443 3.20453Z" fill="#073930"/>
<path d="M18.0784 2.98244L18.2561 3.07128V3.51546L18.0784 3.29337V2.98244Z" fill="#073930"/>
<path d="M7.1514 19.1064H7.24023V19.2841H7.32907L7.37349 19.3729V19.7727H7.32907L7.28465 19.5062L7.1514 19.4173V19.1064Z" fill="#073930"/>
<path d="M7.37349 8.6236L7.50675 8.66802L7.55116 8.80128V9.11221L7.37349 8.97895V8.6236Z" fill="#073930"/>
<path d="M32.1147 14.5757H32.2035L32.2923 14.6645H32.3812V14.9755L32.2479 15.0199L32.1591 14.7534L32.1147 14.5757Z" fill="#073930"/>
<path d="M18.3449 11.955L18.4782 11.9994V12.4436L18.3449 12.3992V11.955Z" fill="#073930"/>
<path d="M7.72884 16.2636H7.81768L7.8621 16.3524V16.6634H7.68443L7.72884 16.2636Z" fill="#073930"/>
<path d="M30.8709 10.0894H31.0042L31.0486 10.4892L30.9154 10.4448L30.8709 10.3559V10.0894Z" fill="#073930"/>
<path d="M32.6033 16.308L32.7365 16.4413L32.6921 16.7522L32.6033 16.841L32.5589 16.3969L32.6033 16.308Z" fill="#073930"/>
</g>
<defs>
<clipPath id="clip0_4_51">
<rect width="90.9693" height="22" fill="white"/>
</clipPath>
</defs>
</svg>
