<svg width="87" height="22" viewBox="0 0 87 22" fill="none" xmlns="http://www.w3.org/2000/svg">
<g clip-path="url(#clip0_4_123)">
<path d="M29.3807 2.33375H30.3107L30.7758 2.50285L31.0294 2.71422L31.1139 2.92559L31.0717 3.34834L30.8603 3.8979L30.4376 4.70112L30.3953 4.82794V5.16614L30.6067 5.41978L31.6212 5.8848L32.044 6.13845L32.4667 6.51892L32.7204 6.89939L32.8472 7.32213V7.7026L32.7204 8.20989L32.4245 8.88628L32.044 9.5204L31.5367 10.2391L29.7612 12.6487L29.2116 13.4096L28.7466 14.1283L28.3661 14.8047L28.1125 15.3543L28.0702 15.5234V15.9038L28.1547 15.9884H28.5775L28.958 15.8193L29.4652 15.4811L30.0571 15.0161L30.4798 14.6356L30.818 14.3397L31.4944 13.7056L32.2554 12.9446L33.0163 12.0146L33.6081 11.2536L34.2 10.4504L35.13 9.05538L35.8487 7.8717L36.3137 7.02621L36.6942 6.51892L37.0746 6.09617L37.4974 5.67343L38.216 5.16614L38.8924 4.82794L39.5688 4.57429L40.1607 4.44747L41.133 4.36292H41.6403L42.5703 4.48975L43.4581 4.78567L44.1345 5.12386L44.5995 5.41978L45.0645 5.80025L45.6141 6.34982L46.0791 6.98393L46.4173 7.57578L46.7555 8.37899L47.0091 9.26675L47.1359 10.1968V11.2959L47.0937 11.5918L47.0514 11.6341H37.9624L38.1315 12.7333L38.3429 13.4096L38.6388 13.9592L38.977 14.382L39.5266 14.8047L40.1607 15.1006L40.7525 15.2274H41.9362L42.6549 15.0583L43.289 14.7201L43.5849 14.4665L43.9654 13.9592L44.3036 13.2405H46.9246L46.7555 13.9169L46.4595 14.5933L46.0368 15.2697L45.4872 15.9038L44.9799 16.3266L44.219 16.7916L43.6272 17.0452L42.9508 17.2566L42.3167 17.3834L41.9362 17.4257H40.5834L39.7379 17.2989L38.977 17.0875L38.216 16.7493L37.6242 16.3688L37.1592 15.9884L36.6942 15.5234L36.2291 14.8892L35.891 14.2974L35.595 13.9592L35.13 13.6633L34.7495 13.5365H34.0732L33.5659 13.7056L33.0163 14.0015L32.5936 14.3397L32.1708 14.7201L31.4944 15.3543L31.0294 15.7347L30.3107 16.2843L29.5921 16.7493L28.9157 17.0875L28.2816 17.2989L28.1125 17.3412H27.3093L26.7597 17.1721L26.3369 16.8761L26.041 16.5379L25.8296 16.1152L25.7451 15.777V14.847L25.8719 14.1706L26.1678 13.3674L26.506 12.691L26.9711 11.8455L27.5629 10.9155L28.1125 10.1122L28.958 8.84401L29.3384 8.20989L29.6766 7.49123L29.7189 7.32213V6.89939L29.5498 6.64574L29.2116 6.34982L28.8311 6.223L28.4507 6.26527L28.1125 6.51892L27.6897 7.06848L27.0979 7.82942L25.8719 9.43585L24.7728 10.9577L24.0964 11.93L23.5046 12.8601L22.9973 13.7478L22.5745 14.5088L22.1518 15.0583L21.7713 15.4811L21.264 15.9884L20.6299 16.4534L20.0381 16.7916L19.3617 17.0875L18.8121 17.2566L18.1357 17.3834L17.7552 17.4257H16.2756L15.4302 17.2989L14.6692 17.0875L13.8237 16.707L13.2319 16.3266L12.8091 15.9884L12.1327 15.312L11.6255 14.551L11.2873 13.8324L11.0336 13.0714L10.8645 12.2682L10.78 11.5073V10.2813L10.8645 9.56267L11.0759 8.59036L11.3718 7.78715L11.7523 7.06848L12.175 6.47664L12.6823 5.92707L13.2742 5.46206L13.9083 5.08159L14.5424 4.78567L15.3879 4.53202L16.1911 4.4052L17.1634 4.36292L18.178 4.44747L18.9812 4.61657L19.6153 4.82794L20.334 5.16614L20.9681 5.58888L21.6022 6.13845L22.025 6.64574L22.4054 7.23758L22.955 8.33671L23.1664 8.54809L23.42 8.71718L23.5891 8.75946H24.2232L24.7305 8.54809L25.3224 8.12534L25.7451 7.74487L26.2101 7.19531L26.7597 6.43437L27.267 5.7157L27.3938 5.37751V4.87021L27.267 4.44747L27.2247 4.067L27.3515 3.51743L27.6474 3.05242L28.0279 2.71422L28.4929 2.50285L29.0425 2.37603L29.3807 2.33375ZM16.4447 6.56119L15.8106 6.73029L15.1765 7.06848L14.6692 7.5335L14.331 7.91397L13.9928 8.50581L13.7392 9.1822L13.5701 9.94314L13.5278 10.1968V11.5918L13.6546 12.3105L13.866 13.0292L14.2042 13.7056L14.5424 14.1706L14.9651 14.5933L15.557 14.9738L15.9374 15.1429L16.5293 15.2697H17.5861L18.2203 15.1006L18.8121 14.8047L19.2348 14.4665L19.573 14.1283L19.9958 13.4942L20.2917 12.7755L20.5031 11.8878L20.5454 11.5496V10.2391L20.3763 9.30903L20.1649 8.67491L19.7844 7.95624L19.3194 7.40668L18.8121 7.02621L18.4739 6.81484L17.8398 6.60346L17.6284 6.56119H16.4447ZM41.2598 6.51892L40.668 6.56119L40.0338 6.73029L39.442 7.02621L38.977 7.40668L38.5542 7.91397L38.216 8.59036L38.0469 9.13993L37.9624 9.81632H44.3458L44.3036 9.30903L44.0922 8.54809L43.7963 7.95624L43.3735 7.40668L42.7817 6.94166L42.2321 6.68801L41.7671 6.56119L41.2598 6.51892Z" fill="black"/>
<path d="M70.26 0.00865936H72.9656V17.0875H70.3869L70.3446 15.4811L70.0487 15.9461L69.5836 16.4534L69.1186 16.7916L68.5268 17.0875L67.6813 17.3412L67.1317 17.4257H65.779L64.9757 17.2989L64.2993 17.0875L63.7498 16.8339L63.1579 16.4957L62.6084 16.0307L62.1856 15.6079L61.7206 14.9738L61.3824 14.3397L61.1288 13.7056L60.8751 12.7332L60.7483 11.93L60.706 11.465V10.1122L60.8328 9.05538L61.0442 8.20989L61.3824 7.3644L61.7206 6.73029L62.2279 6.0539L62.7775 5.50433L63.4539 5.03931L64.1725 4.70112L64.9335 4.48974L65.4408 4.4052L66.1594 4.36292L67.0895 4.44747L67.9772 4.65884L68.6113 4.91249L69.2455 5.29296L69.7527 5.75798L70.0487 6.0539L70.2178 6.30754L70.26 0.00865936ZM66.2862 6.56119L65.779 6.68801L65.1871 6.98393L64.8066 7.27985L64.3839 7.7026L64.0034 8.29444L63.7498 8.88628L63.5384 9.68949L63.4539 10.3236V11.6341L63.5807 12.4373L63.8766 13.3251L64.2571 14.0015L64.7221 14.5088L65.2294 14.8892L65.779 15.1429L66.3285 15.2697H67.3854L68.0618 15.1006L68.5691 14.847L68.9495 14.551L69.2032 14.3397L69.5836 13.8324L69.9218 13.1983L70.1755 12.4373L70.3023 11.8032L70.3446 11.3805V10.3659L70.26 9.64722L70.0909 8.92855L69.8373 8.29444L69.4568 7.7026L69.1186 7.32213L68.6536 6.98393L68.1463 6.73029L67.5122 6.56119H66.2862Z" fill="black"/>
<path d="M0 0.00865936H2.70556L2.74784 9.56267L2.70556 9.68949L3.04376 9.39357L3.97379 8.46354L4.26971 8.12534L6.89072 5.50433L7.18665 5.16613L7.60939 4.74339L10.9913 4.70112L10.9491 4.82794L10.6109 5.12386L9.84993 5.8848L9.51174 6.18072L8.83535 6.85711L8.49715 7.15303L7.77849 7.8717L7.44029 8.16762L6.7639 8.84401L6.42571 9.13993L6.34116 9.22448L6.38343 9.39357L7.60939 11.2536L8.62397 12.7755L9.84993 14.6356L11.0759 16.4534L11.4564 17.0452V17.0875H8.11668L6.5948 14.6779L5.96069 13.6633L5.36885 12.7333L4.73473 11.7187L4.39654 11.1691L4.22744 11.2536L3.67787 11.7609L2.83238 12.6064H2.74784V17.0452L2.70556 17.0875H0V0.00865936Z" fill="black"/>
<path d="M74.2338 4.74339H77.2353L77.4044 5.16613L78.2499 7.61805L78.9686 9.64722L79.6872 11.7187L80.4059 13.7478L80.4482 13.9592H80.5327L80.6173 13.5787L81.5473 10.8309L82.266 8.71718L83.0692 6.34982L83.6187 4.74339H86.4934L86.1975 5.58888L85.3943 7.78714L83.2383 13.621L82.3505 16.0307L81.5473 18.1866L80.9555 19.5817L80.6173 20.2158L80.1945 20.8077L79.6872 21.3149L79.1377 21.6531L78.5881 21.8645L78.0385 21.9913H76.1362L75.5021 21.9068L75.4175 21.8645L75.3752 20.5963V19.624L75.4175 19.5817L75.8403 19.624L76.5589 19.7085L77.2353 19.6662L77.7003 19.4971L78.0808 19.159L78.419 18.5248L78.884 17.1298L78.8417 16.8761L78.2076 15.2274L77.4044 13.1137L76.5166 10.7886L75.5866 8.33671L74.6988 6.01162L74.2338 4.78566V4.74339Z" fill="black"/>
<path d="M54.9567 4.36292L55.7599 4.4052L56.4786 4.53202L57.2395 4.78567L57.7891 5.08159L58.2118 5.41978L58.5923 5.80025L58.8882 6.26527L59.1841 6.94166L59.3532 7.7026L59.3955 8.16762V17.0875H56.6477L56.6054 8.88628L56.4786 8.12534L56.2672 7.57578L56.0136 7.19531L55.6754 6.89939L55.2104 6.68801L54.8299 6.60347L54.2803 6.56119L53.6885 6.60347L53.1812 6.73029L52.6739 6.98393L52.2934 7.27986L51.9975 7.57578L51.6593 8.12534L51.4479 8.63264L51.3211 9.13993L51.2788 9.47812L51.2366 17.0875H48.531L48.4887 8.59036V6.39209L48.531 4.74339H51.1097V6.56119H51.1943L51.2788 6.34982L51.7439 5.75798L52.2089 5.33523L52.843 4.91249L53.4771 4.61657L54.1112 4.44747L54.9567 4.36292Z" fill="black"/>
</g>
<defs>
<clipPath id="clip0_4_123">
<rect width="86.5779" height="22" fill="white"/>
</clipPath>
</defs>
</svg>
