<svg width="31" height="23" viewBox="0 0 31 23" fill="none" xmlns="http://www.w3.org/2000/svg">
<path d="M5.47532 0.5H6.53355L7.17406 0.583544L7.78672 0.722785L8.34368 0.917722L8.67786 1.08481L8.7057 1.14051L8.51077 1.66962L8.0095 3.11772L7.9538 3.25696L7.87026 3.28481L7.75887 3.25696L7.67532 2.58861L7.53608 2.03165L7.34115 1.58608L7.09051 1.2519L6.86773 1.05696L6.53355 0.862025L6.11583 0.750633H5.47532L5.08545 0.834177L4.72342 0.973418L4.3057 1.1962L3.97153 1.44684L3.69304 1.69747L3.41456 1.97595L3.13608 2.33797L2.8576 2.7557L2.57912 3.28481L2.32849 3.92532L2.13355 4.59367L2.02216 5.23418L1.99431 5.45696V6.62658L2.07785 7.18354L2.18925 7.60127L2.32849 7.96329L2.52342 8.32532L2.77406 8.63165L2.99684 8.82658L3.44241 9.04937L3.74874 9.13291L3.99937 9.16076H4.3614L4.80697 9.07721L5.22469 8.91013L5.50317 8.71519L5.67026 8.4924L5.78165 8.26962L6.03229 7.32278L6.22722 6.51519L6.25507 6.15316L6.17153 5.90253L5.97659 5.67975L5.64241 5.51266L5.28039 5.40127V5.31772L7.3133 5.28987H8.7057L8.7614 5.34557L8.65001 5.42911L8.34368 5.51266L8.09304 5.6519L7.89811 5.87468L7.73102 6.23671L7.48039 7.12785L7.09051 8.63165L7.00697 8.77089L6.31077 9.04937L5.64241 9.2443L5.08545 9.3557L4.52849 9.41139H3.94368L3.41456 9.3557L2.82975 9.21646L2.27279 8.99367L1.88292 8.77089L1.43735 8.40886L1.21456 8.18608L0.908235 7.76835L0.713298 7.43418L0.490513 6.84937L0.379121 6.32025L0.351273 6.09747V5.26203L0.434817 4.70506L0.574057 4.17595L0.741146 3.73038L1.10317 3.03418L1.43735 2.58861L1.77153 2.19873L2.1614 1.83671L2.60697 1.50253L2.96899 1.27975L3.5538 0.973418L4.08292 0.778481L4.58418 0.639241L5.22469 0.527848L5.47532 0.5Z" fill="#3A3435"/>
<path d="M19.6222 13.5329H20.2905L21.0703 13.6165L21.7943 13.7835L22.3791 14.0063L22.5462 14.0899L22.4627 14.3962L21.9057 15.9278L21.7943 16.1785L21.6551 16.2063L21.6272 16.1785L21.5437 15.538L21.4323 15.0646L21.2373 14.619L20.9589 14.257L20.5968 14.0063L20.2627 13.8671L19.9842 13.8114H19.3437L18.9538 13.8949L18.5918 14.0342L18.2297 14.2291L17.8956 14.4797L17.6171 14.7304L17.4222 14.9253L17.1158 15.3152L16.9209 15.6215L16.6981 16.0392L16.531 16.457L16.3361 17.0696L16.1968 17.9051V18.8519L16.2804 19.381L16.3918 19.7987L16.5867 20.2443L16.7816 20.5506L17.088 20.8848L17.4779 21.1633L17.9513 21.3582L18.2854 21.4418L18.4804 21.4696H19.0373L19.5943 21.3582L20.012 21.219L20.4019 21.0241L20.7361 20.7734L21.0703 20.4671L21.2652 20.2165L21.3487 20.1608H21.4323L21.4044 20.3278L21.0981 20.8291L20.8753 21.1076L20.6247 21.3861L20.3741 21.6367L19.9006 21.9709L19.4551 22.1937L18.9538 22.3608L18.6753 22.4165L18.3968 22.4443H17.9234L17.3943 22.3608L16.9209 22.2215L16.4475 21.9987L16.0854 21.7481L15.7234 21.4418L15.4171 21.0797L15.1386 20.662L14.9158 20.1886L14.7487 19.6316L14.6373 19.0468V18.1278L14.7766 17.4316L14.9158 16.9861L15.1665 16.4013L15.4728 15.9L15.7513 15.538L16.0019 15.2595L16.169 15.0646L16.3918 14.8696L16.893 14.4797L17.3108 14.2291L17.7563 14.0063L18.1741 13.8392L18.731 13.6722L19.1209 13.5886L19.6222 13.5329Z" fill="#3A3435"/>
<path d="M26.6956 16.7359L27.0023 16.9028L27.3636 17.2085L27.6146 17.5708L27.7816 17.9331L27.8929 18.3511L27.9212 18.5737V19.0464L27.8372 19.6314L27.6419 20.2163L27.4193 20.6616L27.141 21.0523L26.807 21.4419L26.5003 21.7202L25.9994 22.0542L25.5814 22.2495L25.0804 22.3882L24.9408 22.4165H24.1888L23.8275 22.3052L23.4652 22.1099L23.1312 21.8042L22.8802 21.4419L22.7132 21.0523L22.6019 20.5786V19.771L22.6859 19.2974L22.8529 18.7964L23.1585 18.2114L23.4935 17.7661L23.9105 17.3482L24.3285 17.0415L24.8021 16.7915L25.2201 16.6519L25.4701 16.5962H26.2503L26.6956 16.7359ZM25.6097 16.7915L25.3871 16.8745L25.1361 17.0698L24.8851 17.3482L24.6068 17.7661L24.3568 18.2954L24.1058 19.0464L23.9662 19.687L23.8831 20.4116V21.1079L23.9662 21.5806L24.0775 21.8872L24.2171 22.0825L24.3841 22.1939L24.6351 22.2495L24.8578 22.2212L25.1361 22.0825L25.3587 21.8872L25.6654 21.5532L25.9437 21.0796L26.1947 20.523L26.4173 19.7984L26.556 19.0747L26.6117 18.4898V18.0161L26.5287 17.4595L26.389 17.1255L26.1947 16.9028L25.971 16.7915H25.6097Z" fill="#3A3435"/>
<path d="M13.969 3.47975L14.2196 3.50759L14.4424 3.61899L14.5816 3.78608L14.6652 3.98101V4.31519L14.5816 4.56582L14.3867 4.78861L14.1082 4.92785H13.7741L13.4956 4.78861L13.1892 4.56582H12.8551L12.6323 4.67722L12.3816 4.9L12.1032 5.26203L11.8247 5.67975L11.6019 6.12532L11.2956 7.21139L10.8222 8.96582L10.7386 9.18861L10.6829 9.21646H9.79177L9.51329 9.18861L9.54114 8.99367L10.0424 7.1557L10.4601 5.6519L10.6272 4.9557L10.6551 4.59367L10.5715 4.37089L10.4323 4.23165L10.2373 4.17595L9.95886 4.1481V4.03671L10.6829 3.86962L12.1032 3.56329H12.2424L12.2146 3.78608L11.9082 4.98354L11.7968 5.40127L12.1867 4.81646L12.4652 4.45443L12.688 4.2038L12.9108 4.00886L13.1892 3.78608L13.5234 3.59114L13.7741 3.50759L13.969 3.47975Z" fill="#3A3435"/>
<path d="M23.7994 3.5076H24.2449L24.6348 3.56329L24.969 3.67468L25.2475 3.84177L25.4424 4.06456L25.5259 4.25949V4.51013L25.4146 4.73291L25.2475 4.87215L25.1361 4.92785H24.8854L24.6905 4.8443L24.5234 4.64937L24.412 4.39873L24.3006 4.06456L24.1892 3.89747V3.84177L23.9386 3.75823H23.5766L23.2703 3.86962L23.0753 4.03671L22.9639 4.23165L22.9361 4.34304V4.73291L23.0475 5.03924L23.2424 5.34557L24.412 6.51519L24.6627 6.87722L24.8019 7.1557L24.8854 7.46203V7.93544L24.774 8.29747L24.607 8.6038L24.3563 8.85443L23.9665 9.10506L23.6044 9.2443L23.0475 9.3557H22.3791L22.0171 9.3L21.5994 9.16076L21.293 8.93797L21.1259 8.68734L21.0981 8.57595V8.38101L21.2095 8.10253L21.3487 7.99114L21.5158 7.93544H21.7943L22.0171 8.04684L22.1285 8.21392L22.3513 8.85443L22.4627 9.02152L22.6576 9.13291L22.9639 9.16076L23.3259 9.04937L23.5766 8.88228L23.7158 8.71519L23.8272 8.43671V8.10253L23.688 7.76835L23.4373 7.43418L23.131 7.1L22.9082 6.87722L22.7133 6.65443L22.4627 6.37595L22.1842 5.95823L22.0449 5.6519L21.9892 5.42911V4.9L22.1285 4.48228L22.3234 4.2038L22.6019 3.92532L22.8804 3.75823L23.2146 3.61899L23.5487 3.53544L23.7994 3.5076Z" fill="#3A3435"/>
<path d="M28.3943 3.5076H28.8677L29.2576 3.56329L29.6475 3.70253L29.9538 3.92532L30.093 4.1481L30.1487 4.42658L30.0652 4.64937L29.8981 4.8443L29.7032 4.92785H29.5082L29.2854 4.8443L29.1184 4.64937L28.9513 4.2038L28.7842 3.86962L28.5892 3.75823H28.1715L27.8652 3.86962L27.6703 4.03671L27.5589 4.23165L27.531 4.34304V4.70506L27.6146 4.98354L27.8095 5.28987L28.0601 5.56835L28.6728 6.18101L28.8399 6.32025L29.0905 6.62658L29.3411 7.01646L29.4804 7.40633V7.96329L29.369 8.32532L29.1184 8.68734L28.8399 8.93797L28.45 9.16076L27.9766 9.3L27.6424 9.3557H26.9462L26.5006 9.27215L26.1665 9.13291L25.9158 8.93797L25.7766 8.77089L25.693 8.5481L25.7209 8.26962L25.8323 8.07468L26.0551 7.93544H26.4171L26.612 8.04684L26.7234 8.18608L26.8627 8.63165L27.0019 8.96582L27.169 9.10506L27.4196 9.16076L27.6981 9.13291L27.9766 9.02152L28.1994 8.85443L28.3665 8.63165L28.4222 8.46456V8.07468L28.3108 7.7962L28.088 7.48987L27.7816 7.1557L27.5589 6.93291L27.3639 6.71013L27.0576 6.37595L26.7791 5.95823L26.6399 5.62405L26.5842 5.37342V4.9557L26.6677 4.62152L26.8348 4.31519L27.0854 4.03671L27.2804 3.86962L27.726 3.64684L28.1437 3.53544L28.3943 3.5076Z" fill="#3A3435"/>
<path d="M18.5919 3.59158L18.9259 3.75857L19.2042 3.98123L19.3712 4.20388L19.5109 4.17556L19.8448 3.89724L20.2628 3.59158H20.3458L20.2902 3.89724L19.7335 6.04177L19.3995 7.2947L19.2042 8.10232L19.1769 8.40896L19.2325 8.63162H19.4825L19.7335 8.52029L19.9845 8.32498L20.1515 8.18631L20.3185 7.96365H20.3741V7.90799L20.4572 7.87967L20.5128 7.90799L20.4855 8.01931L20.2902 8.24197L19.9562 8.60427L19.6495 8.85427L19.2599 9.10525L18.9259 9.24392L18.6749 9.29959H18.4523L18.1466 9.18826L18.1183 9.10525H18.0626L17.923 8.82693L17.8956 8.68728L17.923 8.21365L17.9786 7.93533L18.007 7.87967L17.8673 8.01931L17.4503 8.46463L17.1437 8.77127L16.8097 9.02127L16.42 9.24392L16.1134 9.35525L15.8351 9.38357L15.4728 9.32791L15.1388 9.16092L14.9161 8.93826L14.6935 8.49197L14.6378 8.26931L14.6095 8.01931V7.68435L14.6935 7.10037L14.8605 6.51541L15.1105 5.95779L15.3331 5.56814L15.5568 5.23416L15.8624 4.84451L16.1134 4.56619L16.3644 4.31521L16.6427 4.09256L17.0597 3.81424L17.4777 3.61892L17.756 3.53592L18.007 3.5076H18.2296L18.5919 3.59158ZM17.923 3.73025L17.7003 3.84158L17.339 4.14822L17.004 4.53787L16.67 5.0115L16.3644 5.59646L16.1407 6.1531L16.0021 6.6824L15.9181 7.23904V7.71267L15.9464 7.85232L16.0577 8.13064L16.1964 8.29763L16.42 8.40896H16.8097L17.0597 8.32498L17.3947 8.13064L17.6447 7.93533L17.8673 7.74099L17.9786 7.60135L18.1466 7.37869L18.5636 5.73513L18.7032 5.0115V4.45486L18.6476 4.20388L18.4806 3.8699L18.3136 3.73025L18.0626 3.70291L17.923 3.73025Z" fill="#3A3435"/>
<path d="M29.2019 20.7734H29.5082L29.7867 20.8848L29.9259 20.9962L30.093 21.2747L30.1487 21.581L30.0652 21.9152L29.8702 22.1658L29.6196 22.3329L29.4804 22.3886H29.1183L28.8399 22.2772L28.6171 22.0544L28.5335 21.8595L28.5057 21.7203L28.5335 21.3582L28.6449 21.1354L28.7563 20.9962L29.007 20.8291L29.2019 20.7734Z" fill="#3A3435"/>
<path d="M7.17451 11.027L7.59151 11.1657L7.95381 11.361L8.23213 11.611L8.42744 11.946L8.48311 12.1686V12.53L8.39912 12.8092L8.26045 13.0319L8.0378 13.2262L7.81416 13.3102H7.34151L7.03487 13.1989L6.78389 12.9479L6.70088 12.7536L6.67256 12.5856V12.2516L6.70088 11.946V11.4997L6.64522 11.361L6.53389 11.3053L6.39424 11.2497H5.89326L5.44795 11.361L5.00166 11.5837L4.696 11.8346L4.44502 12.0846L4.1667 12.5026L3.99971 12.8366L3.86006 13.2546L3.77705 13.7282V14.4245L3.86006 14.8971L3.88838 15.0085L4.27803 14.9811H5.14131L5.55928 15.0641L5.80928 15.2038L5.94893 15.3708L6.00459 15.5104V15.8444L5.92061 16.0671L5.69795 16.318L5.44795 16.485L5.02998 16.6237L4.86299 16.652H4.4167L3.99971 16.568L3.63741 16.4294L3.30342 16.2341L3.08076 16.0397L2.96944 16.0671L2.71846 16.3454L2.46748 16.735L2.27315 17.153L2.1335 17.6266L2.07784 17.9333V18.7409L2.18916 19.2135L2.32881 19.5485L2.4958 19.8542L2.80147 20.2438L3.13643 20.5231L3.55342 20.7731L4.13838 20.9958L4.61201 21.1081L5.11299 21.1637H5.78194L6.33858 21.1081L6.9792 20.9684L7.59151 20.7458L8.06514 20.4948L8.42744 20.2165L8.6501 20.0212L8.92842 19.6315L9.12373 19.2419L9.20674 18.9352L9.23506 18.7682V18.2389L9.12373 17.8493L8.95674 17.571L8.84541 17.4313L8.53877 17.2087L8.26045 17.0973L7.81416 17.0417L7.56416 17.0973L7.42451 17.2087L7.34151 17.404V17.6823L7.45284 18.0163L7.56416 18.2673L7.59151 18.3786V18.6569L7.5085 18.8796L7.36885 19.0466L7.11787 19.1862L7.00655 19.2135H6.64522L6.3669 19.1022L6.14326 18.8796L6.00459 18.5739L5.97627 18.4059V18.1833L6.06026 17.7936L6.25459 17.4313L6.56123 17.0973L6.83955 16.8747L7.20186 16.652L7.61983 16.4567L8.20479 16.2624L8.92842 16.1227L9.62471 16.0397L10.5163 15.9831L11.2116 15.9001L11.7409 15.7887L12.1862 15.6217L12.4655 15.4264L12.6325 15.1481L12.6882 14.8971L12.6599 14.5075L12.5485 14.2565L12.3815 14.0622L12.1589 13.9509L12.0749 13.9225H11.7409L11.6022 14.0339L11.5466 14.1452L11.4626 14.5632L11.323 14.8141L11.1003 14.9528L10.8776 15.0085L10.5993 14.9811L10.3767 14.8698L10.2097 14.6745L10.0983 14.3688V14.1735L10.1814 13.8395L10.321 13.6169L10.5163 13.4216L10.822 13.2546L11.0446 13.1989H11.6579L12.0192 13.3102L12.2702 13.4489L12.5485 13.6999L12.7155 13.8952L12.9108 14.2848L12.9939 14.6471V15.2878L12.8825 15.7331L12.6599 16.1784L12.3542 16.5124L12.0476 16.735L11.5739 16.9587L11.073 17.07L10.7946 17.0973H10.2653L9.68037 17.0143L8.76143 16.819H8.39912L8.76143 16.9587L9.01241 17.1257L9.20674 17.2926L9.45772 17.6823L9.59639 18.0163L9.65205 18.2389L9.68037 18.7409L9.62471 19.2419L9.51338 19.6598L9.31807 20.1051L9.15108 20.4118L8.92842 20.7175L8.67744 20.9958L8.34346 21.3307L7.86983 21.6647L7.36885 21.943L6.81221 22.1657L6.11592 22.361L5.41963 22.4723L4.97432 22.4997H4.64034L3.91573 22.444L3.21944 22.3053L2.6628 22.1384L2.16182 21.9147L1.65987 21.6091L1.24287 21.2467L0.991898 20.9684L0.713577 20.5505L0.518265 20.1051L0.379593 19.5759L0.351273 19.4089V18.6296L0.462601 18.0163L0.629593 17.5426L0.852249 17.0973L1.07491 16.735L1.38155 16.3737L1.74385 16.0114L2.24483 15.6491L2.60713 15.4548L2.4958 15.1764L2.35616 14.7301L2.32881 14.5632V13.8952L2.41182 13.4216L2.57881 12.9762L2.80147 12.5856L3.08076 12.2243L3.41475 11.8903L3.88838 11.5553L4.30537 11.3327L4.83467 11.1384L5.25264 11.027L5.80928 10.943H6.70088L7.17451 11.027ZM4.80733 15.2321L4.50069 15.2594L4.11104 15.3434L4.08272 15.4548L4.30537 15.7048L4.55635 15.9001L4.91866 16.0397H5.39131L5.61494 15.9001L5.72627 15.7331V15.5661L5.69795 15.5104L5.58662 15.3708L5.41963 15.2878L5.11299 15.2321H4.80733Z" fill="#3A3435"/>
</svg>
